# This file uses centimeters as units for non-parametric coordinates.

mtllib Rock_Big.mtl
g default
v -32.126140 2.808014 99.996063
v -31.219623 2.808014 100.481575
v -30.308366 2.808014 100.481575
v -29.380029 2.808014 99.881225
v -32.126140 3.299536 99.996063
v -31.217591 3.299775 100.478592
v -30.307931 3.300381 100.482269
v -29.379699 3.298822 99.879425
v -32.113017 3.791059 99.889610
v -31.226108 3.801304 100.201408
v -30.319701 3.836181 100.213028
v -29.780501 3.725660 99.685013
v -31.732452 4.282581 99.605255
v -31.075042 4.273715 99.817970
v -30.310430 4.297000 99.867020
v -29.811793 4.225218 99.388519
v -32.102212 4.297733 99.189606
v -31.202544 4.642667 98.834267
v -30.353501 4.884624 98.997932
v -29.671266 4.422378 98.766647
v -32.026767 4.316330 97.901352
v -31.202544 4.852996 97.787300
v -30.382400 4.963234 97.728821
v -29.521920 4.429992 98.021957
v -31.798062 4.314051 97.048813
v -31.202544 4.282581 96.729187
v -30.418267 4.282581 96.948486
v -29.688682 4.282581 97.420242
v -31.999358 3.796826 96.538132
v -31.202544 3.791059 96.397217
v -30.476457 3.791059 96.534302
v -29.417783 3.791059 97.151810
v -32.232575 3.300338 96.440964
v -31.202544 3.299536 96.101234
v -30.353726 3.299536 96.322342
v -29.112441 3.299536 96.763763
v -32.235049 2.808014 96.442215
v -31.202544 2.808014 96.422943
v -30.291286 2.808014 96.729187
v -29.368947 2.808014 96.744018
v -32.906844 2.808014 97.616897
v -28.898137 2.808014 97.938461
v -32.839788 2.808014 99.230011
v -28.909219 2.808014 98.981743
v -28.577279 3.299536 98.045212
v -28.902923 3.299536 98.983147
v -29.225146 3.791059 98.068748
v -29.504121 3.859031 98.666092
v -32.910821 3.299536 97.608703
v -32.839788 3.299536 99.230011
v -32.387818 4.001259 97.791382
v -32.374662 3.888069 99.173248
v -47.056079 3.017659 100.569855
v -45.493510 3.017659 104.128937
v -42.759761 3.017659 106.061157
v -38.544124 3.017659 106.005478
v -47.056079 7.084793 100.569855
v -45.480334 7.086407 104.123207
v -42.760089 7.090501 106.064384
v -38.538859 7.079969 106.000122
v -46.763034 10.404034 100.238777
v -44.845325 10.473222 103.170578
v -42.153812 10.708746 105.131691
v -39.277949 9.962397 104.494781
v -44.943683 13.723275 100.086952
v -43.478396 13.663404 102.198128
v -41.301456 13.820642 103.984779
v -38.665286 13.335896 103.428795
v -45.062495 13.825595 97.901581
v -41.516704 16.154922 98.611153
v -39.359622 17.788857 100.963272
v -36.761783 14.667317 101.630104
v -41.766231 13.951179 93.718140
v -39.021777 17.575272 95.081268
v -36.422031 18.319702 96.623146
v -34.539149 14.718734 99.436012
v -39.048518 13.935792 91.328712
v -36.500293 13.723275 91.513801
v -34.670093 13.723275 93.916168
v -33.605533 13.723275 97.053703
v -38.435428 10.442983 89.180069
v -35.709216 10.404034 90.394562
v -33.857623 10.404034 92.396309
v -32.153163 10.404034 96.723076
v -38.903529 7.090206 88.357971
v -35.003879 7.084793 89.396637
v -32.984340 7.084793 91.941917
v -30.312427 7.084793 96.062202
v -38.913943 3.017659 88.356964
v -35.770511 3.017659 90.481293
v -33.766543 3.017659 93.446022
v -31.034892 3.017659 95.451744
v -43.728580 3.017659 90.892967
v -32.468844 3.017659 100.477165
v -47.371478 3.017659 96.473854
v -34.988231 3.017659 103.971123
v -31.760654 7.084793 101.517410
v -34.972690 7.084793 103.989227
v -33.760333 10.404034 100.223045
v -36.020732 10.863049 101.645477
v -43.721011 7.084793 90.856949
v -47.371478 7.084793 96.473854
v -42.587306 11.823509 92.581779
v -45.840854 11.059142 97.268722
vt 0.111785 0.039795
vt 0.203938 0.020871
vt 0.214410 0.070819
vt 0.122046 0.089761
vt 0.296574 0.001848
vt 0.306896 0.051891
vt 0.475612 0.062629
vt 0.486088 0.124045
vt 0.435910 0.132794
vt 0.425231 0.071151
vt 0.224073 0.118349
vt 0.123312 0.144817
vt 0.336733 0.109387
vt 0.395637 0.160131
vt 0.239810 0.154509
vt 0.163678 0.176516
vt 0.326586 0.150450
vt 0.349706 0.199180
vt 0.226578 0.256597
vt 0.145693 0.219631
vt 0.301877 0.245128
vt 0.340388 0.266237
vt 0.226578 0.365248
vt 0.151858 0.353292
vt 0.307430 0.376581
vt 0.376797 0.341724
vt 0.226578 0.475057
vt 0.164458 0.441761
vt 0.307968 0.452298
vt 0.380934 0.402438
vt 0.225073 0.504083
vt 0.133070 0.503707
vt 0.299004 0.486719
vt 0.422475 0.425809
vt 0.237447 0.547743
vt 0.134562 0.576747
vt 0.318439 0.520527
vt 0.459954 0.470578
vt 0.251326 0.596828
vt 0.148217 0.625982
vt 0.342326 0.571098
vt 0.434434 0.545055
vt 0.519991 0.322790
vt 0.540834 0.444982
vt 0.467845 0.320447
vt 0.501785 0.216062
vt 0.451477 0.224496
vt 0.417151 0.326616
vt 0.399774 0.266694
vt 0.009085 0.507581
vt 0.006741 0.385698
vt 0.057757 0.385566
vt 0.060170 0.506728
vt 0.003521 0.218323
vt 0.054521 0.217342
vt 0.001992 0.138838
vt 0.052992 0.137857
vt 0.130202 0.365212
vt 0.115699 0.222056
vt 0.111785 0.039795
vt 0.203938 0.020871
vt 0.214410 0.070819
vt 0.122046 0.089761
vt 0.296574 0.001848
vt 0.306896 0.051891
vt 0.475612 0.062629
vt 0.486088 0.124045
vt 0.435910 0.132794
vt 0.425231 0.071151
vt 0.224073 0.118349
vt 0.123312 0.144817
vt 0.336733 0.109387
vt 0.395637 0.160131
vt 0.239810 0.154509
vt 0.163678 0.176516
vt 0.326586 0.150450
vt 0.349706 0.199180
vt 0.226578 0.256597
vt 0.145693 0.219631
vt 0.301877 0.245128
vt 0.340388 0.266237
vt 0.226578 0.365248
vt 0.151858 0.353292
vt 0.307430 0.376581
vt 0.376797 0.341724
vt 0.226578 0.475057
vt 0.164458 0.441761
vt 0.307968 0.452298
vt 0.380934 0.402438
vt 0.225073 0.504083
vt 0.133070 0.503707
vt 0.299004 0.486719
vt 0.422475 0.425809
vt 0.237447 0.547743
vt 0.134562 0.576747
vt 0.318439 0.520527
vt 0.459954 0.470578
vt 0.251326 0.596828
vt 0.148217 0.625982
vt 0.342326 0.571098
vt 0.434434 0.545055
vt 0.519991 0.322790
vt 0.540834 0.444982
vt 0.467845 0.320447
vt 0.501785 0.216062
vt 0.451477 0.224496
vt 0.417151 0.326616
vt 0.399774 0.266694
vt 0.009085 0.507581
vt 0.006741 0.385698
vt 0.057757 0.385566
vt 0.060170 0.506728
vt 0.003521 0.218323
vt 0.054521 0.217342
vt 0.001992 0.138838
vt 0.052992 0.137857
vt 0.130202 0.365212
vt 0.115699 0.222056
vn -0.470587 0.003649 0.882346
vn -0.258455 0.003123 0.966018
vn -0.225578 0.217228 0.949698
vn -0.431588 0.177498 0.884436
vn 0.309892 0.001396 0.950771
vn 0.292459 0.271212 0.917012
vn 0.543852 0.000521 0.839181
vn 0.564931 0.239896 0.789496
vn -0.189079 0.515972 0.835477
vn -0.330214 0.473038 0.816819
vn 0.271618 0.554464 0.786634
vn 0.594241 0.495150 0.633802
vn -0.175984 0.795313 0.580092
vn -0.298988 0.817986 0.491432
vn 0.187136 0.759894 0.622528
vn 0.747017 0.514301 0.421260
vn -0.296845 0.933266 0.202234
vn -0.538974 0.822163 0.183182
vn 0.135122 0.949399 0.283519
vn 0.710771 0.668844 0.217836
vn -0.271834 0.950435 -0.150927
vn -0.568586 0.818914 -0.078037
vn 0.179430 0.957366 -0.226394
vn 0.705806 0.702852 -0.088526
vn -0.109385 0.775649 -0.621614
vn -0.484884 0.784561 -0.386460
vn 0.249639 0.722329 -0.644919
vn 0.584990 0.634254 -0.505478
vn -0.027596 0.537166 -0.843025
vn -0.230039 0.511945 -0.827644
vn 0.290815 0.565550 -0.771739
vn 0.373184 0.586953 -0.718485
vn 0.008941 -0.033242 -0.999407
vn -0.205346 -0.006150 -0.978670
vn 0.301166 0.064499 -0.951388
vn 0.321533 0.243835 -0.914965
vn 0.049293 -0.460122 -0.886487
vn -0.163301 -0.307331 -0.937486
vn 0.210105 -0.467683 -0.858562
vn 0.189827 -0.391948 -0.900190
vn 0.891789 -0.417372 -0.174678
vn 0.830068 -0.444119 -0.337262
vn 0.932462 0.079682 -0.352372
vn 0.957384 0.278212 -0.077552
vn 0.932194 -0.174794 0.316957
vn 0.846756 0.426310 0.318222
vn 0.884406 -0.005777 0.466683
vn 0.774035 0.498527 0.390308
vn 0.712227 0.664349 -0.226657
vn 0.741545 0.670835 -0.009566
vn 0.764870 0.585246 0.269187
vn 0.699551 0.650400 0.295987
vn -0.866385 -0.006117 -0.499340
vn -0.977684 -0.004978 -0.210023
vn -0.914800 0.357706 -0.187582
vn -0.827200 0.345805 -0.442899
vn -0.950074 -0.002379 0.312016
vn -0.911277 0.331530 0.244257
vn -0.731692 0.000000 0.681635
vn -0.758903 0.203605 0.618556
vn -0.770694 0.624426 -0.126975
vn -0.732930 0.582873 -0.350818
vn -0.782562 0.595860 0.180409
vn -0.726386 0.477631 0.494198
vn -0.914894 0.001766 0.403691
vn -0.787729 0.001543 0.616020
vn -0.766235 0.120974 0.631070
vn -0.896428 0.095580 0.432760
vn -0.261008 0.000690 0.965336
vn -0.260707 0.152413 0.953311
vn 0.258269 -0.001202 0.966072
vn 0.296763 0.215012 0.930431
vn -0.710410 0.344949 0.613456
vn -0.818465 0.313582 0.481437
vn -0.220387 0.371042 0.902085
vn 0.358454 0.379089 0.853113
vn -0.635682 0.620959 0.458605
vn -0.720355 0.645573 0.253621
vn -0.232595 0.587547 0.775040
vn 0.445241 0.311658 0.839422
vn -0.569823 0.820855 -0.038716
vn -0.735341 0.632487 -0.243383
vn -0.042921 0.888059 0.457722
vn 0.556905 0.449329 0.698541
vn -0.219175 0.872094 -0.437509
vn -0.579655 0.616502 -0.532847
vn 0.411713 0.907009 -0.088467
vn 0.774444 0.487132 0.403656
vn 0.325268 0.600607 -0.730391
vn -0.266681 0.587309 -0.764166
vn 0.725651 0.532137 -0.436190
vn 0.906133 0.422140 -0.026835
vn 0.509354 0.363734 -0.779908
vn 0.286960 0.346678 -0.893011
vn 0.788750 0.382183 -0.481467
vn 0.896943 0.441013 -0.031645
vn 0.588235 -0.019904 -0.808445
vn 0.375977 0.009334 -0.926582
vn 0.811267 0.033735 -0.583702
vn 0.990617 0.094284 -0.098935
vn 0.603721 -0.248743 -0.757396
vn 0.404394 -0.158522 -0.900742
vn 0.748715 -0.256785 -0.611137
vn 0.950771 -0.240123 -0.195898
vn 0.878103 -0.198435 0.435384
vn 0.854715 0.136014 0.500962
vn 0.612574 -0.079450 0.786410
vn 0.577485 0.228705 0.783712
vn 0.740756 0.438659 0.508782
vn 0.567868 0.360038 0.740202
vn -0.463252 -0.002788 -0.886222
vn -0.692962 -0.002223 -0.720971
vn -0.686710 0.190321 -0.701575
vn -0.478294 0.180685 -0.859411
vn -0.945726 -0.001067 -0.324963
vn -0.917873 0.172747 -0.357306
vn -0.997048 0.000000 0.076774
vn -0.994123 0.106753 0.017993
vn -0.663319 0.402271 -0.631020
vn -0.487781 0.369536 -0.790894
vn -0.846924 0.378293 -0.373651
vn -0.954479 0.290557 -0.067427
s 1
g polySurface40
usemtl blinn1SG
f 1/1/1 2/2/2 6/3/3 5/4/4
f 2/2/2 3/5/5 7/6/6 6/3/3
f 3/7/5 4/8/7 8/9/8 7/10/6
f 5/4/4 6/3/3 10/11/9 9/12/10
f 6/3/3 7/6/6 11/13/11 10/11/9
f 7/10/6 8/9/8 12/14/12 11/13/11
f 9/12/10 10/11/9 14/15/13 13/16/14
f 10/11/9 11/13/11 15/17/15 14/15/13
f 11/13/11 12/14/12 16/18/16 15/17/15
f 13/16/14 14/15/13 18/19/17 17/20/18
f 14/15/13 15/17/15 19/21/19 18/19/17
f 15/17/15 16/18/16 20/22/20 19/21/19
f 17/20/18 18/19/17 22/23/21 21/24/22
f 18/19/17 19/21/19 23/25/23 22/23/21
f 19/21/19 20/22/20 24/26/24 23/25/23
f 21/24/22 22/23/21 26/27/25 25/28/26
f 22/23/21 23/25/23 27/29/27 26/27/25
f 23/25/23 24/26/24 28/30/28 27/29/27
f 25/28/26 26/27/25 30/31/29 29/32/30
f 26/27/25 27/29/27 31/33/31 30/31/29
f 27/29/27 28/30/28 32/34/32 31/33/31
f 29/32/30 30/31/29 34/35/33 33/36/34
f 30/31/29 31/33/31 35/37/35 34/35/33
f 31/33/31 32/34/32 36/38/36 35/37/35
f 33/36/34 34/35/33 38/39/37 37/40/38
f 34/35/33 35/37/35 39/41/39 38/39/37
f 35/37/35 36/38/36 40/42/40 39/41/39
f 42/43/41 40/44/42 36/38/43 45/45/44
f 44/46/45 42/43/41 45/45/44 46/47/46
f 4/8/47 44/46/45 46/47/46 8/9/48
f 45/45/44 36/38/43 32/34/49 47/48/50
f 46/47/46 45/45/44 47/48/50 48/49/51
f 8/9/48 46/47/46 48/49/51 12/14/52
f 47/48/50 32/34/49 28/30/28 24/26/24
f 48/49/51 47/48/50 24/26/24 20/22/20
f 12/14/52 48/49/51 20/22/20 16/18/16
f 37/50/53 41/51/54 49/52/55 33/53/56
f 41/51/54 43/54/57 50/55/58 49/52/55
f 43/54/57 1/56/59 5/57/60 50/55/58
f 33/53/56 49/52/55 51/58/61 29/32/62
f 49/52/55 50/55/58 52/59/63 51/58/61
f 50/55/58 5/57/60 9/12/64 52/59/63
f 29/32/62 51/58/61 21/24/22 25/28/26
f 51/58/61 52/59/63 17/20/18 21/24/22
f 52/59/63 9/12/64 13/16/14 17/20/18
s 4
f 53/60/65 54/61/66 58/62/67 57/63/68
f 54/61/66 55/64/69 59/65/70 58/62/67
f 55/66/69 56/67/71 60/68/72 59/69/70
f 57/63/68 58/62/67 62/70/73 61/71/74
f 58/62/67 59/65/70 63/72/75 62/70/73
f 59/69/70 60/68/72 64/73/76 63/72/75
f 61/71/74 62/70/73 66/74/77 65/75/78
f 62/70/73 63/72/75 67/76/79 66/74/77
f 63/72/75 64/73/76 68/77/80 67/76/79
f 65/75/78 66/74/77 70/78/81 69/79/82
f 66/74/77 67/76/79 71/80/83 70/78/81
f 67/76/79 68/77/80 72/81/84 71/80/83
f 69/79/82 70/78/81 74/82/85 73/83/86
f 70/78/81 71/80/83 75/84/87 74/82/85
f 71/80/83 72/81/84 76/85/88 75/84/87
f 73/83/86 74/82/85 78/86/89 77/87/90
f 74/82/85 75/84/87 79/88/91 78/86/89
f 75/84/87 76/85/88 80/89/92 79/88/91
f 77/87/90 78/86/89 82/90/93 81/91/94
f 78/86/89 79/88/91 83/92/95 82/90/93
f 79/88/91 80/89/92 84/93/96 83/92/95
f 81/91/94 82/90/93 86/94/97 85/95/98
f 82/90/93 83/92/95 87/96/99 86/94/97
f 83/92/95 84/93/96 88/97/100 87/96/99
f 85/95/98 86/94/97 90/98/101 89/99/102
f 86/94/97 87/96/99 91/100/103 90/98/101
f 87/96/99 88/97/100 92/101/104 91/100/103
f 94/102/105 92/103/104 88/97/100 97/104/106
f 96/105/107 94/102/105 97/104/106 98/106/108
f 56/67/71 96/105/107 98/106/108 60/68/72
f 97/104/106 88/97/100 84/93/96 99/107/109
f 98/106/108 97/104/106 99/107/109 100/108/110
f 60/68/72 98/106/108 100/108/110 64/73/76
f 99/107/109 84/93/96 80/89/92 76/85/88
f 100/108/110 99/107/109 76/85/88 72/81/84
f 64/73/76 100/108/110 72/81/84 68/77/80
f 89/109/111 93/110/112 101/111/113 85/112/114
f 93/110/112 95/113/115 102/114/116 101/111/113
f 95/113/115 53/115/117 57/116/118 102/114/116
f 85/112/114 101/111/113 103/117/119 81/91/120
f 101/111/113 102/114/116 104/118/121 103/117/119
f 102/114/116 57/116/118 61/71/122 104/118/121
f 81/91/120 103/117/119 73/83/86 77/87/90
f 103/117/119 104/118/121 69/79/82 73/83/86
f 104/118/121 61/71/122 65/75/78 69/79/82
