# This file uses centimeters as units for non-parametric coordinates.

mtllib Rock_Small.mtl
g default
v -3.387812 -0.350365 5.052475
v -1.821638 -0.350365 5.891273
v -0.247276 -0.350365 5.891273
v 1.356594 -0.350365 4.854065
v -3.387812 0.498829 5.052475
v -1.818129 0.499242 5.886131
v -0.246527 0.500289 5.892464
v 1.357162 0.497595 4.850952
v -3.365141 1.348024 4.868553
v -1.832846 1.365725 5.407234
v -0.266861 1.425981 5.427315
v 0.664705 1.235036 4.515068
v -2.707644 2.197218 4.377258
v -1.571848 2.181901 4.744774
v -0.250841 2.222129 4.829521
v 0.610643 2.098113 4.002823
v -3.346472 2.223396 3.659172
v -1.792131 2.819331 3.045242
v -0.325256 3.237357 3.328011
v 0.853430 2.438742 2.928436
v -3.216127 2.255526 1.433472
v -1.792131 3.182713 1.236420
v -0.375183 3.373169 1.135391
v 1.111452 2.451897 1.641838
v -2.820997 2.251588 -0.039436
v -1.792131 2.197218 -0.591660
v -0.437153 2.197218 -0.212776
v 0.823339 2.197218 0.602257
v -3.168776 1.357988 -0.921753
v -1.792131 1.348024 -1.165192
v -0.537683 1.348024 -0.928368
v 1.291367 1.348024 0.138496
v -3.571699 0.500214 -1.089622
v -1.792131 0.498829 -1.676559
v -0.325647 0.498829 -1.294571
v 1.818901 0.498829 -0.531914
v -3.575972 -0.350365 -1.087456
v -1.792131 -0.350365 -1.120758
v -0.217770 -0.350365 -0.591660
v 1.375740 -0.350365 -0.566032
v -4.736620 -0.350365 0.942017
v 2.189150 -0.350365 1.497589
v -4.620768 -0.350365 3.728966
v 2.170002 -0.350365 3.300041
v 2.743490 0.498829 1.682007
v 2.180883 0.498829 3.302467
v 1.624182 1.348024 1.722679
v 1.142202 1.465458 2.754700
v -4.743490 0.498829 0.927872
v -4.620768 0.498829 3.728966
v -3.839907 1.711183 1.243477
v -3.817179 1.515627 3.630905
v -3.387812 -0.358925 0.836571
v -1.821638 -0.358925 1.675377
v -0.247276 -0.358925 1.675377
v 1.356594 -0.358925 0.638161
v -3.387812 1.426614 0.836571
v -1.818129 1.427322 1.670235
v -0.246527 1.429120 1.676559
v 1.357162 1.424496 0.635056
v -3.365141 2.883815 0.652657
v -1.832846 2.914190 1.191330
v -0.266861 3.017589 1.211411
v 0.664705 2.689929 0.299164
v -2.707644 4.341017 0.161354
v -1.571848 4.314733 0.528877
v -0.250841 4.383763 0.613617
v 0.610643 4.170952 -0.213081
v -3.346472 4.385937 -0.556732
v -1.792131 5.408551 -1.170662
v -0.325256 6.125874 -0.887894
v 0.853430 4.755468 -1.287476
v -3.216127 4.441071 -2.782433
v -1.792131 6.032107 -2.979485
v -0.375183 6.358925 -3.080505
v 1.111452 4.778040 -2.574066
v -2.820997 4.434315 -4.255348
v -1.792131 4.341017 -4.807564
v -0.437153 4.341017 -4.428673
v 0.823339 4.341017 -3.613640
v -3.168776 2.900915 -5.137657
v -1.792131 2.883815 -5.381096
v -0.537683 2.883815 -5.144272
v 1.291367 2.883815 -4.077408
v -3.571699 1.428990 -5.305527
v -1.792131 1.426614 -5.892464
v -0.325647 1.426614 -5.510468
v 1.818901 1.426614 -4.747826
v -3.575972 -0.358925 -5.303352
v -1.792131 -0.358925 -5.336655
v -0.217770 -0.358925 -4.807564
v 1.375740 -0.358925 -4.781937
v -4.736620 -0.358925 -3.273888
v 2.189150 -0.358925 -2.718315
v -4.620768 -0.358925 -0.486931
v 2.170002 -0.358925 -0.915863
v 2.743490 1.426614 -2.533890
v 2.180883 1.426614 -0.913429
v 1.624182 2.883815 -2.493225
v 1.142202 3.085330 -1.461205
v -4.743490 1.426614 -3.288025
v -4.620768 1.426614 -0.486931
v -3.839907 3.506989 -2.972435
v -3.817179 3.171419 -0.584999
vt 0.111785 0.039795
vt 0.203938 0.020871
vt 0.214410 0.070819
vt 0.122046 0.089761
vt 0.296574 0.001848
vt 0.306896 0.051891
vt 0.475612 0.062629
vt 0.486088 0.124045
vt 0.435910 0.132794
vt 0.425231 0.071151
vt 0.224073 0.118349
vt 0.123312 0.144817
vt 0.336733 0.109387
vt 0.395637 0.160131
vt 0.239810 0.154509
vt 0.163678 0.176516
vt 0.326586 0.150450
vt 0.349706 0.199180
vt 0.226578 0.256597
vt 0.145693 0.219631
vt 0.301877 0.245128
vt 0.340388 0.266237
vt 0.226578 0.365248
vt 0.151858 0.353292
vt 0.307430 0.376581
vt 0.376797 0.341724
vt 0.226578 0.475057
vt 0.164458 0.441761
vt 0.307968 0.452298
vt 0.380934 0.402438
vt 0.225073 0.504083
vt 0.133070 0.503707
vt 0.299004 0.486719
vt 0.422475 0.425809
vt 0.237447 0.547743
vt 0.134562 0.576747
vt 0.318439 0.520527
vt 0.459954 0.470578
vt 0.251326 0.596828
vt 0.148217 0.625982
vt 0.342326 0.571098
vt 0.434434 0.545055
vt 0.519991 0.322790
vt 0.540834 0.444982
vt 0.467845 0.320447
vt 0.501785 0.216062
vt 0.451477 0.224496
vt 0.417151 0.326616
vt 0.399774 0.266694
vt 0.009085 0.507581
vt 0.006741 0.385698
vt 0.057757 0.385566
vt 0.060170 0.506728
vt 0.003521 0.218323
vt 0.054521 0.217342
vt 0.001992 0.138838
vt 0.052992 0.137857
vt 0.130202 0.365212
vt 0.115699 0.222056
vt 0.111785 0.039795
vt 0.203938 0.020871
vt 0.214410 0.070819
vt 0.122046 0.089761
vt 0.296574 0.001848
vt 0.306896 0.051891
vt 0.475612 0.062629
vt 0.486088 0.124045
vt 0.435910 0.132794
vt 0.425231 0.071151
vt 0.224073 0.118349
vt 0.123312 0.144817
vt 0.336733 0.109387
vt 0.395637 0.160131
vt 0.239810 0.154509
vt 0.163678 0.176516
vt 0.326586 0.150450
vt 0.349706 0.199180
vt 0.226578 0.256597
vt 0.145693 0.219631
vt 0.301877 0.245128
vt 0.340388 0.266237
vt 0.226578 0.365248
vt 0.151858 0.353292
vt 0.307430 0.376581
vt 0.376797 0.341724
vt 0.226578 0.475057
vt 0.164458 0.441761
vt 0.307968 0.452298
vt 0.380934 0.402438
vt 0.225073 0.504083
vt 0.133070 0.503707
vt 0.299004 0.486719
vt 0.422475 0.425809
vt 0.237447 0.547743
vt 0.134562 0.576747
vt 0.318439 0.520527
vt 0.459954 0.470578
vt 0.251326 0.596828
vt 0.148217 0.625982
vt 0.342326 0.571098
vt 0.434434 0.545055
vt 0.519991 0.322790
vt 0.540834 0.444982
vt 0.467845 0.320447
vt 0.501785 0.216062
vt 0.451477 0.224496
vt 0.417151 0.326616
vt 0.399774 0.266694
vt 0.009085 0.507581
vt 0.006741 0.385698
vt 0.057757 0.385566
vt 0.060170 0.506728
vt 0.003521 0.218323
vt 0.054521 0.217342
vt 0.001992 0.138838
vt 0.052992 0.137857
vt 0.130202 0.365212
vt 0.115699 0.222056
vn -0.470585 0.003643 0.882347
vn -0.258456 0.003119 0.966018
vn -0.225579 0.217227 0.949698
vn -0.431588 0.177499 0.884435
vn 0.309888 0.001399 0.950772
vn 0.292458 0.271212 0.917013
vn 0.543849 0.000528 0.839183
vn 0.564930 0.239896 0.789496
vn -0.189082 0.515975 0.835475
vn -0.330216 0.473045 0.816815
vn 0.271619 0.554462 0.786635
vn 0.594245 0.495145 0.633801
vn -0.175984 0.795314 0.580091
vn -0.298982 0.817988 0.491432
vn 0.187136 0.759894 0.622528
vn 0.747016 0.514301 0.421262
vn -0.296847 0.933265 0.202233
vn -0.538974 0.822163 0.183183
vn 0.135120 0.949400 0.283519
vn 0.710769 0.668846 0.217837
vn -0.271836 0.950435 -0.150928
vn -0.568586 0.818914 -0.078037
vn 0.179429 0.957367 -0.226394
vn 0.705806 0.702852 -0.088526
vn -0.109384 0.775649 -0.621614
vn -0.484881 0.784563 -0.386459
vn 0.249637 0.722330 -0.644919
vn 0.584991 0.634254 -0.505477
vn -0.027596 0.537169 -0.843023
vn -0.230031 0.511946 -0.827645
vn 0.290813 0.565551 -0.771738
vn 0.373186 0.586953 -0.718484
vn 0.008940 -0.033242 -0.999407
vn -0.205339 -0.006150 -0.978672
vn 0.301166 0.064498 -0.951388
vn 0.321540 0.243832 -0.914964
vn 0.049292 -0.460121 -0.886487
vn -0.163297 -0.307329 -0.937488
vn 0.210106 -0.467685 -0.858561
vn 0.189832 -0.391952 -0.900188
vn 0.891790 -0.417372 -0.174677
vn 0.830067 -0.444120 -0.337263
vn 0.932461 0.079683 -0.352373
vn 0.957384 0.278210 -0.077554
vn 0.932194 -0.174794 0.316955
vn 0.846756 0.426310 0.318222
vn 0.884407 -0.005778 0.466681
vn 0.774034 0.498528 0.390309
vn 0.712228 0.664348 -0.226657
vn 0.741547 0.670833 -0.009565
vn 0.764869 0.585246 0.269187
vn 0.699547 0.650403 0.295989
vn -0.866386 -0.006116 -0.499337
vn -0.977684 -0.004978 -0.210024
vn -0.914801 0.357706 -0.187580
vn -0.827200 0.345806 -0.442897
vn -0.950074 -0.002379 0.312015
vn -0.911278 0.331530 0.244256
vn -0.731694 0.000000 0.681633
vn -0.758904 0.203605 0.618554
vn -0.770694 0.624426 -0.126975
vn -0.732930 0.582873 -0.350817
vn -0.782563 0.595859 0.180409
vn -0.726385 0.477631 0.494199
vn -0.470591 0.001733 0.882350
vn -0.258280 0.001484 0.966069
vn -0.234971 0.116510 0.964994
vn -0.440194 0.093132 0.893060
vn 0.309954 0.000666 0.950751
vn 0.305196 0.147866 0.940740
vn 0.543849 0.000251 0.839183
vn 0.574144 0.132593 0.807947
vn -0.203641 0.333157 0.920618
vn -0.355773 0.302926 0.884116
vn 0.309305 0.360019 0.880180
vn 0.644846 0.318489 0.694794
vn -0.231619 0.608298 0.759161
vn -0.404977 0.641762 0.651257
vn 0.236666 0.574386 0.783626
vn 0.822979 0.322548 0.467620
vn -0.458440 0.829965 0.317791
vn -0.720057 0.650654 0.241177
vn 0.212604 0.885187 0.413816
vn 0.838413 0.471383 0.273611
vn -0.406639 0.880178 -0.244807
vn -0.759351 0.641250 -0.110386
vn 0.266363 0.908333 -0.322461
vn 0.850079 0.510243 -0.130454
vn -0.144738 0.586927 -0.796598
vn -0.622295 0.597034 -0.506260
vn 0.313267 0.520248 -0.794485
vn 0.687533 0.429869 -0.585244
vn -0.030592 0.349387 -0.936479
vn -0.253476 0.333525 -0.908026
vn 0.332992 0.371774 -0.866545
vn 0.425867 0.388998 -0.816896
vn 0.011975 -0.018790 -0.999752
vn -0.203428 0.007135 -0.979064
vn 0.293443 0.033510 -0.955389
vn 0.311539 0.111042 -0.943723
vn 0.048897 -0.237497 -0.970157
vn -0.169590 -0.151845 -0.973747
vn 0.232639 -0.247467 -0.940553
vn 0.202229 -0.198587 -0.958992
vn 0.962642 -0.211350 -0.169269
vn 0.901730 -0.229457 -0.366379
vn 0.932962 0.067554 -0.353580
vn 0.985192 0.142845 -0.094831
vn 0.943415 -0.084137 0.320762
vn 0.909789 0.240381 0.338380
vn 0.884418 -0.002750 0.466687
vn 0.854218 0.288135 0.432770
vn 0.850176 0.452394 -0.269334
vn 0.885058 0.465283 -0.013568
vn 0.874158 0.377269 0.305804
vn 0.827364 0.440966 0.347875
vn -0.866399 -0.002909 -0.499344
vn -0.977421 -0.002370 -0.211289
vn -0.959764 0.201707 -0.195362
vn -0.864071 0.190227 -0.466041
vn -0.950076 -0.001131 0.312016
vn -0.947126 0.183277 0.263368
vn -0.731693 0.000000 0.681635
vn -0.766775 0.109852 0.632447
vn -0.893248 0.424660 -0.147552
vn -0.832205 0.386066 -0.397980
vn -0.893964 0.398913 0.204197
vn -0.788361 0.300881 0.536617
s 1
g polySurface32
usemtl blinn1SG
f 1/1/1 2/2/2 6/3/3 5/4/4
f 2/2/2 3/5/5 7/6/6 6/3/3
f 3/7/5 4/8/7 8/9/8 7/10/6
f 5/4/4 6/3/3 10/11/9 9/12/10
f 6/3/3 7/6/6 11/13/11 10/11/9
f 7/10/6 8/9/8 12/14/12 11/13/11
f 9/12/10 10/11/9 14/15/13 13/16/14
f 10/11/9 11/13/11 15/17/15 14/15/13
f 11/13/11 12/14/12 16/18/16 15/17/15
f 13/16/14 14/15/13 18/19/17 17/20/18
f 14/15/13 15/17/15 19/21/19 18/19/17
f 15/17/15 16/18/16 20/22/20 19/21/19
f 17/20/18 18/19/17 22/23/21 21/24/22
f 18/19/17 19/21/19 23/25/23 22/23/21
f 19/21/19 20/22/20 24/26/24 23/25/23
f 21/24/22 22/23/21 26/27/25 25/28/26
f 22/23/21 23/25/23 27/29/27 26/27/25
f 23/25/23 24/26/24 28/30/28 27/29/27
f 25/28/26 26/27/25 30/31/29 29/32/30
f 26/27/25 27/29/27 31/33/31 30/31/29
f 27/29/27 28/30/28 32/34/32 31/33/31
f 29/32/30 30/31/29 34/35/33 33/36/34
f 30/31/29 31/33/31 35/37/35 34/35/33
f 31/33/31 32/34/32 36/38/36 35/37/35
f 33/36/34 34/35/33 38/39/37 37/40/38
f 34/35/33 35/37/35 39/41/39 38/39/37
f 35/37/35 36/38/36 40/42/40 39/41/39
f 42/43/41 40/44/42 36/38/43 45/45/44
f 44/46/45 42/43/41 45/45/44 46/47/46
f 4/8/47 44/46/45 46/47/46 8/9/48
f 45/45/44 36/38/43 32/34/49 47/48/50
f 46/47/46 45/45/44 47/48/50 48/49/51
f 8/9/48 46/47/46 48/49/51 12/14/52
f 47/48/50 32/34/49 28/30/28 24/26/24
f 48/49/51 47/48/50 24/26/24 20/22/20
f 12/14/52 48/49/51 20/22/20 16/18/16
f 37/50/53 41/51/54 49/52/55 33/53/56
f 41/51/54 43/54/57 50/55/58 49/52/55
f 43/54/57 1/56/59 5/57/60 50/55/58
f 33/53/56 49/52/55 51/58/61 29/32/62
f 49/52/55 50/55/58 52/59/63 51/58/61
f 50/55/58 5/57/60 9/12/64 52/59/63
f 29/32/62 51/58/61 21/24/22 25/28/26
f 51/58/61 52/59/63 17/20/18 21/24/22
f 52/59/63 9/12/64 13/16/14 17/20/18
s 4
f 53/60/65 54/61/66 58/62/67 57/63/68
f 54/61/66 55/64/69 59/65/70 58/62/67
f 55/66/69 56/67/71 60/68/72 59/69/70
f 57/63/68 58/62/67 62/70/73 61/71/74
f 58/62/67 59/65/70 63/72/75 62/70/73
f 59/69/70 60/68/72 64/73/76 63/72/75
f 61/71/74 62/70/73 66/74/77 65/75/78
f 62/70/73 63/72/75 67/76/79 66/74/77
f 63/72/75 64/73/76 68/77/80 67/76/79
f 65/75/78 66/74/77 70/78/81 69/79/82
f 66/74/77 67/76/79 71/80/83 70/78/81
f 67/76/79 68/77/80 72/81/84 71/80/83
f 69/79/82 70/78/81 74/82/85 73/83/86
f 70/78/81 71/80/83 75/84/87 74/82/85
f 71/80/83 72/81/84 76/85/88 75/84/87
f 73/83/86 74/82/85 78/86/89 77/87/90
f 74/82/85 75/84/87 79/88/91 78/86/89
f 75/84/87 76/85/88 80/89/92 79/88/91
f 77/87/90 78/86/89 82/90/93 81/91/94
f 78/86/89 79/88/91 83/92/95 82/90/93
f 79/88/91 80/89/92 84/93/96 83/92/95
f 81/91/94 82/90/93 86/94/97 85/95/98
f 82/90/93 83/92/95 87/96/99 86/94/97
f 83/92/95 84/93/96 88/97/100 87/96/99
f 85/95/98 86/94/97 90/98/101 89/99/102
f 86/94/97 87/96/99 91/100/103 90/98/101
f 87/96/99 88/97/100 92/101/104 91/100/103
f 94/102/105 92/103/106 88/97/107 97/104/108
f 96/105/109 94/102/105 97/104/108 98/106/110
f 56/67/111 96/105/109 98/106/110 60/68/112
f 97/104/108 88/97/107 84/93/113 99/107/114
f 98/106/110 97/104/108 99/107/114 100/108/115
f 60/68/112 98/106/110 100/108/115 64/73/116
f 99/107/114 84/93/113 80/89/92 76/85/88
f 100/108/115 99/107/114 76/85/88 72/81/84
f 64/73/116 100/108/115 72/81/84 68/77/80
f 89/109/117 93/110/118 101/111/119 85/112/120
f 93/110/118 95/113/121 102/114/122 101/111/119
f 95/113/121 53/115/123 57/116/124 102/114/122
f 85/112/120 101/111/119 103/117/125 81/91/126
f 101/111/119 102/114/122 104/118/127 103/117/125
f 102/114/122 57/116/124 61/71/128 104/118/127
f 81/91/126 103/117/125 73/83/86 77/87/90
f 103/117/125 104/118/127 69/79/82 73/83/86
f 104/118/127 61/71/128 65/75/78 69/79/82
