# This file uses centimeters as units for non-parametric coordinates.

mtllib SnowBump_Mid.mtl
g default
v -13.968680 -1.099980 9.307510
v -6.088969 2.676872 7.625420
v -3.489521 2.676872 7.625420
v -0.732111 2.676872 7.625420
v 3.017803 2.676872 7.625420
v 10.375051 -1.099980 9.307510
v -10.087466 5.749716 7.345406
v -6.571442 8.560846 7.345406
v -3.202782 9.496024 7.345406
v -0.976187 9.496024 7.345406
v 3.321468 8.560846 7.345406
v 6.362061 5.403735 7.345406
v -10.362059 5.458373 -6.083366
v -6.549611 8.280910 -6.083366
v -3.393154 9.199265 -6.083366
v -0.788305 9.199265 -6.083366
v 3.454960 8.280910 -6.083366
v 5.827000 5.356337 -6.083366
v -9.298824 4.704689 -15.213966
v -5.975943 7.153472 -15.213966
v -3.224806 7.950218 -15.213966
v -0.954449 7.950218 -15.213966
v 2.743940 7.153472 -15.213966
v 5.134516 4.616169 -15.213966
v -8.420173 3.417198 -22.170029
v -5.501860 5.351707 -22.170029
v -3.085686 6.047680 -22.170029
v -1.091751 6.047680 -22.170029
v 2.156351 5.351707 -22.170029
v 4.255867 3.339875 -22.170029
v -7.574838 2.410985 -28.287590
v -5.045755 3.599409 -28.287590
v -2.951839 4.193625 -28.287590
v -1.223846 4.193625 -28.287590
v 1.591040 3.599409 -28.287590
v 3.410532 2.344967 -28.287590
v -7.574838 1.972966 -33.631210
v -5.045755 2.505032 -33.631210
v -2.951839 2.752147 -33.631210
v -1.223846 2.752147 -33.631210
v 1.126123 2.617414 -33.631210
v 3.410532 2.190551 -33.631210
v -10.250226 -1.885695 -43.837685
v -5.819399 -1.885695 -43.837685
v -3.408630 -1.885695 -43.837685
v -0.851366 -1.885695 -43.837685
v 2.626362 -1.885695 -43.837685
v 6.007069 -1.885695 -43.837685
v -10.250226 -1.885695 -36.936378
v -5.196108 1.891158 -31.071892
v -3.178755 1.036500 -31.071892
v -1.038813 1.036500 -31.071892
v 1.871384 1.036500 -31.071892
v 6.007069 -3.496024 -36.936378
v -11.501240 -1.999938 -28.998398
v -5.672338 1.776915 -24.429321
v -3.344509 0.922256 -24.429321
v -0.875225 0.922256 -24.429321
v 2.482857 0.922256 -24.429321
v 7.258083 -2.854596 -28.998398
v -12.801565 -1.928347 -19.996117
v -6.167336 1.848505 -16.896126
v -3.516798 1.848505 -16.896126
v -0.705193 1.848505 -16.896126
v 3.118422 1.848505 -16.896126
v 8.558401 -1.928347 -19.996117
v -14.375051 -1.610616 -8.156914
v -6.766315 2.166237 -6.988976
v -3.725281 2.166237 -6.988976
v -0.499439 2.166237 -6.988976
v 3.887506 2.166237 -6.988976
v 9.583216 -1.610616 -8.156914
v -13.391546 -1.099980 16.941048
v -6.088969 2.676872 14.013237
v -6.571442 8.302079 13.044319
v -9.697485 5.490949 13.044319
v -3.489521 2.676872 14.013237
v -3.202782 9.237257 13.044319
v -0.732111 2.676872 14.013237
v -0.976187 9.237257 13.044319
v 3.017803 2.676872 14.013237
v 3.321468 8.302079 13.044319
v 10.375051 -1.099980 16.941048
v 6.362061 5.403735 13.044319
v -12.588159 -1.099980 24.651741
v -6.088969 2.676872 20.465645
v -6.571442 7.855874 19.528282
v -9.154625 5.044592 18.800850
v -3.489521 2.676872 20.465645
v -3.202782 8.791052 19.528282
v -0.732111 2.676872 20.465645
v -0.976187 8.791052 19.528282
v 3.017803 2.676872 20.465645
v 3.321468 7.855874 19.528282
v 9.195366 -1.099980 24.651741
v 5.564926 4.957377 18.800850
v -11.866780 -1.099980 33.552803
v -6.088969 2.676872 27.914116
v -6.139078 6.126818 25.446053
v -8.059753 3.931765 25.446053
v -3.489521 2.676872 27.914116
v -3.075933 6.969945 25.446053
v -0.732111 2.676872 27.914116
v -1.051275 6.969945 25.446053
v 3.017803 2.676872 27.914116
v 2.379982 6.126818 25.446053
v 8.748245 -1.099980 33.552803
v 4.655376 3.853136 25.446053
v -11.072453 -1.144092 41.837685
v -6.886383 -1.144092 41.837685
v -6.077467 4.783629 30.714180
v -8.130432 3.657353 30.714180
v -3.780001 -1.144092 41.837685
v -3.202782 5.477121 30.714180
v -0.484854 -1.144092 41.837685
v -0.976187 5.477121 30.714180
v 3.996351 -1.144092 41.837685
v 2.479296 4.783629 30.714180
v 8.798691 -1.144092 41.837685
v 5.296886 3.592679 30.714180
vt 0.375000 0.000000
vt 0.425000 0.000000
vt 0.475000 0.000000
vt 0.525000 0.000000
vt 0.575000 0.000000
vt 0.625000 0.000000
vt 0.375000 0.250000
vt 0.425000 0.250000
vt 0.475000 0.250000
vt 0.525000 0.250000
vt 0.575000 0.250000
vt 0.625000 0.250000
vt 0.375000 0.300000
vt 0.425000 0.300000
vt 0.475000 0.300000
vt 0.525000 0.300000
vt 0.575000 0.300000
vt 0.625000 0.300000
vt 0.375000 0.350000
vt 0.425000 0.350000
vt 0.475000 0.350000
vt 0.525000 0.350000
vt 0.575000 0.350000
vt 0.625000 0.350000
vt 0.375000 0.400000
vt 0.425000 0.400000
vt 0.475000 0.400000
vt 0.525000 0.400000
vt 0.575000 0.400000
vt 0.625000 0.400000
vt 0.375000 0.450000
vt 0.425000 0.450000
vt 0.475000 0.450000
vt 0.525000 0.450000
vt 0.575000 0.450000
vt 0.625000 0.450000
vt 0.375000 0.500000
vt 0.425000 0.500000
vt 0.475000 0.500000
vt 0.525000 0.500000
vt 0.575000 0.500000
vt 0.625000 0.500000
vt 0.375000 0.750000
vt 0.425000 0.750000
vt 0.475000 0.750000
vt 0.525000 0.750000
vt 0.575000 0.750000
vt 0.625000 0.750000
vt 0.375000 0.800000
vt 0.425000 0.800000
vt 0.475000 0.800000
vt 0.525000 0.800000
vt 0.575000 0.800000
vt 0.625000 0.800000
vt 0.375000 0.850000
vt 0.425000 0.850000
vt 0.475000 0.850000
vt 0.525000 0.850000
vt 0.575000 0.850000
vt 0.625000 0.850000
vt 0.375000 0.900000
vt 0.425000 0.900000
vt 0.475000 0.900000
vt 0.525000 0.900000
vt 0.575000 0.900000
vt 0.625000 0.900000
vt 0.375000 0.950000
vt 0.425000 0.950000
vt 0.475000 0.950000
vt 0.525000 0.950000
vt 0.575000 0.950000
vt 0.625000 0.950000
vt 0.375000 1.000000
vt 0.425000 1.000000
vt 0.475000 1.000000
vt 0.525000 1.000000
vt 0.575000 1.000000
vt 0.625000 1.000000
vt 0.875000 0.000000
vt 0.825000 0.000000
vt 0.775000 0.000000
vt 0.725000 0.000000
vt 0.675000 0.000000
vt 0.875000 0.250000
vt 0.825000 0.250000
vt 0.775000 0.250000
vt 0.725000 0.250000
vt 0.675000 0.250000
vt 0.125000 0.000000
vt 0.175000 0.000000
vt 0.225000 0.000000
vt 0.275000 0.000000
vt 0.325000 0.000000
vt 0.125000 0.250000
vt 0.175000 0.250000
vt 0.225000 0.250000
vt 0.275000 0.250000
vt 0.325000 0.250000
vt 0.375000 0.000000
vt 0.425000 0.000000
vt 0.425000 0.250000
vt 0.375000 0.250000
vt 0.475000 0.000000
vt 0.475000 0.250000
vt 0.525000 0.000000
vt 0.525000 0.250000
vt 0.575000 0.000000
vt 0.575000 0.250000
vt 0.625000 0.000000
vt 0.625000 0.250000
vt 0.375000 0.000000
vt 0.425000 0.000000
vt 0.425000 0.250000
vt 0.375000 0.250000
vt 0.475000 0.000000
vt 0.475000 0.250000
vt 0.525000 0.000000
vt 0.525000 0.250000
vt 0.575000 0.000000
vt 0.575000 0.250000
vt 0.625000 0.000000
vt 0.625000 0.250000
vt 0.375000 0.000000
vt 0.425000 0.000000
vt 0.425000 0.250000
vt 0.375000 0.250000
vt 0.475000 0.000000
vt 0.475000 0.250000
vt 0.525000 0.000000
vt 0.525000 0.250000
vt 0.575000 0.000000
vt 0.575000 0.250000
vt 0.625000 0.000000
vt 0.625000 0.250000
vt 0.375000 0.000000
vt 0.425000 0.000000
vt 0.425000 0.250000
vt 0.375000 0.250000
vt 0.475000 0.000000
vt 0.475000 0.250000
vt 0.525000 0.000000
vt 0.525000 0.250000
vt 0.575000 0.000000
vt 0.575000 0.250000
vt 0.625000 0.000000
vt 0.625000 0.250000
vn -0.362962 0.874298 0.322277
vn -0.133117 0.886079 0.444010
vn -0.221903 0.896695 0.383010
vn -0.571672 0.795224 0.202014
vn -0.053616 0.865758 0.497583
vn -0.078004 0.897772 0.433498
vn 0.045568 0.867219 0.495838
vn 0.068299 0.897858 0.434955
vn 0.110157 0.890046 0.442361
vn 0.182380 0.905339 0.383535
vn 0.320985 0.890213 0.323248
vn 0.554842 0.812541 0.178682
vn -0.799726 0.600106 0.017658
vn -0.477996 0.878349 0.004773
vn -0.473820 0.878422 -0.062199
vn -0.792474 0.608151 -0.046233
vn -0.161032 0.986949 -0.001229
vn -0.160025 0.984911 -0.065894
vn 0.137845 0.990453 -0.000875
vn 0.135871 0.988534 -0.065875
vn 0.485190 0.874400 -0.004051
vn 0.494561 0.866773 -0.064141
vn 0.828017 0.560032 -0.027435
vn 0.831648 0.551897 -0.061409
vn -0.457130 0.870994 -0.180004
vn -0.759889 0.632116 -0.151653
vn -0.153443 0.970229 -0.187380
vn 0.129669 0.973608 -0.187813
vn 0.470166 0.863269 -0.183602
vn 0.815166 0.564205 -0.131062
vn -0.423086 0.870195 -0.252506
vn -0.713830 0.675851 -0.183500
vn -0.149845 0.949844 -0.274485
vn 0.126426 0.953112 -0.274943
vn 0.431932 0.862961 -0.262169
vn 0.762110 0.615878 -0.199708
vn -0.338044 0.913333 -0.227046
vn -0.649271 0.743836 -0.158606
vn -0.130105 0.954106 -0.269731
vn 0.106824 0.957196 -0.269007
vn 0.340814 0.910557 -0.233949
vn 0.751820 0.639909 -0.159008
vn -0.123423 0.938728 -0.321801
vn -0.484872 0.852172 -0.196730
vn -0.050107 0.932155 -0.358574
vn 0.033047 0.932267 -0.360258
vn 0.102189 0.937406 -0.332907
vn 0.696129 0.708365 -0.116718
vn -0.063198 0.923732 -0.377791
vn -0.228517 0.920312 -0.317498
vn -0.026312 0.912864 -0.407415
vn 0.012369 0.912095 -0.409792
vn 0.046985 0.919650 -0.389918
vn 0.467147 0.848004 -0.250325
vn 0.269975 -0.947138 0.173331
vn 0.106063 -0.972225 0.208635
vn 0.266693 -0.957766 0.107515
vn 0.356236 -0.924348 0.136661
vn -0.091553 -0.966407 0.240157
vn -0.123721 -0.980283 0.154069
vn 0.000000 -0.974787 0.223137
vn 0.000000 -0.989541 0.144252
vn -0.263802 -0.955333 0.133221
vn -0.348585 -0.929435 0.120993
vn -0.493505 -0.868868 0.039012
vn -0.531408 -0.844958 0.060435
vn 0.352454 -0.934403 0.051641
vn 0.518028 -0.853626 0.054498
vn -0.128977 -0.990834 0.040149
vn 0.000000 -0.998093 0.061726
vn -0.385110 -0.914787 0.121878
vn -0.575599 -0.808412 0.123109
vn 0.351080 -0.934185 0.063569
vn 0.470378 -0.880003 0.065871
vn -0.033682 -0.997885 0.055590
vn 0.000000 -0.997665 0.068305
vn -0.363987 -0.927243 0.087948
vn -0.524937 -0.843248 0.115642
vn 0.352320 -0.935244 0.034483
vn 0.443961 -0.895234 0.038149
vn 0.000000 -0.999430 0.033756
vn 0.000000 -0.999430 0.033755
vn -0.363907 -0.930593 0.039608
vn -0.518700 -0.853803 0.044390
vn 0.346490 -0.938000 0.010086
vn 0.439504 -0.898236 0.002870
vn 0.000000 -0.999690 0.024901
vn 0.000000 -0.999690 0.024888
vn -0.342097 -0.939417 0.021584
vn -0.484332 -0.874736 0.016135
vn 0.893951 0.448049 -0.010177
vn 0.783248 0.593067 -0.186531
vn 0.823542 0.546782 -0.151023
vn 0.862025 0.502012 -0.069983
vn 0.860249 0.509040 -0.029155
vn -0.792442 0.607393 -0.055762
vn -0.748700 0.644903 -0.153455
vn -0.814420 0.561256 -0.147348
vn -0.857522 0.510839 -0.060833
vn -0.865127 0.500677 0.029617
vn 0.358681 -0.933306 -0.016960
vn 0.457230 -0.889051 -0.022994
vn -0.798084 0.597412 0.078488
vn -0.498793 0.864294 0.064823
vn -0.841481 0.532657 0.090473
vn 0.000000 -1.000000 0.000000
vn -0.164417 0.984747 0.056916
vn 0.000000 -1.000000 0.000000
vn 0.141558 0.988280 0.057129
vn -0.333883 -0.942551 -0.010960
vn 0.475200 0.877934 0.058465
vn -0.465262 -0.884875 -0.022982
vn 0.801620 0.595648 0.051085
vn 0.817856 0.568636 0.088116
vn 0.377939 -0.925621 -0.019671
vn 0.496336 -0.867799 -0.023977
vn -0.784022 0.608643 0.121916
vn -0.517484 0.838174 0.172265
vn -0.773054 0.621926 0.124883
vn 0.000000 -1.000000 0.000000
vn -0.161712 0.971329 0.174266
vn 0.000000 -1.000000 0.000000
vn 0.141557 0.974373 0.174810
vn -0.346936 -0.937636 -0.021798
vn 0.487827 0.853598 0.182745
vn -0.507377 -0.861409 -0.023302
vn 0.770580 0.621738 0.140172
vn 0.758316 0.640904 0.119161
vn 0.303772 -0.947042 -0.104091
vn 0.346110 -0.930257 -0.121778
vn -0.738713 0.659534 0.138990
vn -0.491765 0.836252 0.242590
vn -0.763282 0.641415 0.077373
vn 0.000000 -0.983399 -0.181456
vn -0.150019 0.948358 0.279484
vn 0.000000 -0.983421 -0.181338
vn 0.136091 0.949785 0.281760
vn -0.265994 -0.957379 -0.112570
vn 0.440926 0.862943 0.246807
vn -0.339452 -0.933534 -0.115272
vn 0.731309 0.671854 0.117468
vn 0.795855 0.605395 0.010614
vn 0.162174 -0.964863 -0.206737
vn 0.266441 -0.949584 -0.165225
vn 0.000000 -0.964347 -0.264640
vn 0.000000 -0.964347 -0.264640
vn -0.137128 -0.968299 -0.208791
vn -0.259481 -0.953406 -0.153905
s 1
g pCube3
usemtl initialShadingGroup
f 109/135/1 110/136/2 111/137/3 112/138/4
f 110/136/2 113/139/5 114/140/6 111/137/3
f 113/139/5 115/141/7 116/142/8 114/140/6
f 115/141/7 117/143/9 118/144/10 116/142/8
f 117/143/9 119/145/11 120/146/12 118/144/10
f 7/7/13 8/8/14 14/14/15 13/13/16
f 8/8/14 9/9/17 15/15/18 14/14/15
f 9/9/17 10/10/19 16/16/20 15/15/18
f 10/10/19 11/11/21 17/17/22 16/16/20
f 11/11/21 12/12/23 18/18/24 17/17/22
f 13/13/16 14/14/15 20/20/25 19/19/26
f 14/14/15 15/15/18 21/21/27 20/20/25
f 15/15/18 16/16/20 22/22/28 21/21/27
f 16/16/20 17/17/22 23/23/29 22/22/28
f 17/17/22 18/18/24 24/24/30 23/23/29
f 19/19/26 20/20/25 26/26/31 25/25/32
f 20/20/25 21/21/27 27/27/33 26/26/31
f 21/21/27 22/22/28 28/28/34 27/27/33
f 22/22/28 23/23/29 29/29/35 28/28/34
f 23/23/29 24/24/30 30/30/36 29/29/35
f 25/25/32 26/26/31 32/32/37 31/31/38
f 26/26/31 27/27/33 33/33/39 32/32/37
f 27/27/33 28/28/34 34/34/40 33/33/39
f 28/28/34 29/29/35 35/35/41 34/34/40
f 29/29/35 30/30/36 36/36/42 35/35/41
f 31/31/38 32/32/37 38/38/43 37/37/44
f 32/32/37 33/33/39 39/39/45 38/38/43
f 33/33/39 34/34/40 40/40/46 39/39/45
f 34/34/40 35/35/41 41/41/47 40/40/46
f 35/35/41 36/36/42 42/42/48 41/41/47
f 37/37/44 38/38/43 44/44/49 43/43/50
f 38/38/43 39/39/45 45/45/51 44/44/49
f 39/39/45 40/40/46 46/46/52 45/45/51
f 40/40/46 41/41/47 47/47/53 46/46/52
f 41/41/47 42/42/48 48/48/54 47/47/53
s 3
f 43/43/55 44/44/56 50/50/57 49/49/58
f 44/44/56 45/45/59 51/51/60 50/50/57
f 45/45/59 46/46/61 52/52/62 51/51/60
f 46/46/61 47/47/63 53/53/64 52/52/62
f 47/47/63 48/48/65 54/54/66 53/53/64
f 49/49/58 50/50/57 56/56/67 55/55/68
f 50/50/57 51/51/60 57/57/69 56/56/67
f 51/51/60 52/52/62 58/58/70 57/57/69
f 52/52/62 53/53/64 59/59/71 58/58/70
f 53/53/64 54/54/66 60/60/72 59/59/71
f 55/55/68 56/56/67 62/62/73 61/61/74
f 56/56/67 57/57/69 63/63/75 62/62/73
f 57/57/69 58/58/70 64/64/76 63/63/75
f 58/58/70 59/59/71 65/65/77 64/64/76
f 59/59/71 60/60/72 66/66/78 65/65/77
f 61/61/74 62/62/73 68/68/79 67/67/80
f 62/62/73 63/63/75 69/69/81 68/68/79
f 63/63/75 64/64/76 70/70/82 69/69/81
f 64/64/76 65/65/77 71/71/83 70/70/82
f 65/65/77 66/66/78 72/72/84 71/71/83
f 67/67/80 68/68/79 2/74/85 1/73/86
f 68/68/79 69/69/81 3/75/87 2/74/85
f 69/69/81 70/70/82 4/76/88 3/75/87
f 70/70/82 71/71/83 5/77/89 4/76/88
f 71/71/83 72/72/84 6/78/90 5/77/89
s 1
f 54/80/91 48/79/54 42/84/48 36/85/42
f 60/81/92 54/80/91 36/85/42 30/86/36
f 66/82/93 60/81/92 30/86/36 24/87/30
f 72/83/94 66/82/93 24/87/30 18/88/24
f 6/6/95 72/83/94 18/88/24 12/12/23
f 43/89/50 49/90/96 31/95/38 37/94/44
f 49/90/96 55/91/97 25/96/32 31/95/38
f 55/91/97 61/92/98 19/97/26 25/96/32
f 61/92/98 67/93/99 13/98/16 19/97/26
f 67/93/99 1/1/100 7/7/13 13/98/16
s 3
f 1/1/86 2/2/85 74/100/101 73/99/102
s 1
f 8/8/14 7/7/13 76/102/103 75/101/104
f 7/7/13 1/1/100 73/99/105 76/102/103
s 3
f 2/2/85 3/3/87 77/103/106 74/100/101
s 1
f 9/9/17 8/8/14 75/101/104 78/104/107
s 3
f 3/3/87 4/4/88 79/105/108 77/103/106
s 1
f 10/10/19 9/9/17 78/104/107 80/106/109
s 3
f 4/4/88 5/5/89 81/107/110 79/105/108
s 1
f 11/11/21 10/10/19 80/106/109 82/108/111
s 3
f 5/5/89 6/6/90 83/109/112 81/107/110
s 1
f 6/6/95 12/12/23 84/110/113 83/109/114
f 12/12/23 11/11/21 82/108/111 84/110/113
s 3
f 73/99/102 74/100/101 86/112/115 85/111/116
s 1
f 75/101/104 76/102/103 88/114/117 87/113/118
f 76/102/103 73/99/105 85/111/119 88/114/117
s 3
f 74/100/101 77/103/106 89/115/120 86/112/115
s 1
f 78/104/107 75/101/104 87/113/118 90/116/121
s 3
f 77/103/106 79/105/108 91/117/122 89/115/120
s 1
f 80/106/109 78/104/107 90/116/121 92/118/123
s 3
f 79/105/108 81/107/110 93/119/124 91/117/122
s 1
f 82/108/111 80/106/109 92/118/123 94/120/125
s 3
f 81/107/110 83/109/112 95/121/126 93/119/124
s 1
f 83/109/114 84/110/113 96/122/127 95/121/128
f 84/110/113 82/108/111 94/120/125 96/122/127
s 3
f 85/111/116 86/112/115 98/124/129 97/123/130
s 1
f 87/113/118 88/114/117 100/126/131 99/125/132
f 88/114/117 85/111/119 97/123/133 100/126/131
s 3
f 86/112/115 89/115/120 101/127/134 98/124/129
s 1
f 90/116/121 87/113/118 99/125/132 102/128/135
s 3
f 89/115/120 91/117/122 103/129/136 101/127/134
s 1
f 92/118/123 90/116/121 102/128/135 104/130/137
s 3
f 91/117/122 93/119/124 105/131/138 103/129/136
s 1
f 94/120/125 92/118/123 104/130/137 106/132/139
s 3
f 93/119/124 95/121/126 107/133/140 105/131/138
s 1
f 95/121/128 96/122/127 108/134/141 107/133/142
f 96/122/127 94/120/125 106/132/139 108/134/141
s 3
f 97/123/130 98/124/129 110/136/143 109/135/144
s 1
f 99/125/132 100/126/131 112/138/4 111/137/3
f 100/126/131 97/123/133 109/135/1 112/138/4
s 3
f 98/124/129 101/127/134 113/139/145 110/136/143
s 1
f 102/128/135 99/125/132 111/137/3 114/140/6
s 3
f 101/127/134 103/129/136 115/141/146 113/139/145
s 1
f 104/130/137 102/128/135 114/140/6 116/142/8
s 3
f 103/129/136 105/131/138 117/143/147 115/141/146
s 1
f 106/132/139 104/130/137 116/142/8 118/144/10
s 3
f 105/131/138 107/133/140 119/145/148 117/143/147
s 1
f 107/133/142 108/134/141 120/146/12 119/145/11
f 108/134/141 106/132/139 118/144/10 120/146/12
