# This file uses centimeters as units for non-parametric coordinates.

mtllib Lantern.mtl
g default
v 18.228653 0.000000 157.310989
v 22.621277 0.000000 157.310989
v 18.921024 9.539858 156.618607
v 21.928905 9.539858 156.618607
v 18.921024 9.539858 153.610733
v 21.928905 9.539858 153.610733
v 18.228653 0.000000 152.918350
v 22.621277 0.000000 152.918350
v 22.511654 1.510478 153.613861
v 22.511654 1.510478 156.615479
v 22.038532 8.029381 154.086975
v 22.038532 8.029381 156.142365
v 21.785542 1.457778 153.613861
v 21.785542 1.457778 156.615479
v 21.312420 7.976682 154.086975
v 21.312420 7.976682 156.142365
v 18.850945 1.281073 157.218002
v 21.998989 1.281073 157.218002
v 21.502789 8.117971 156.721817
v 19.347141 8.117971 156.721817
v 18.850945 1.221058 156.698257
v 21.998989 1.221058 156.698257
v 21.502789 8.057957 156.202072
v 19.347141 8.057957 156.202072
v 18.315201 1.192482 153.467438
v 18.315201 1.192482 156.761917
v 18.834476 8.347376 156.242630
v 18.834476 8.347376 153.986725
v 18.766029 1.159763 153.467438
v 18.766029 1.159763 156.761917
v 19.285305 8.314657 156.242630
v 19.285305 8.314657 153.986725
v 19.297009 8.347376 153.524185
v 21.552921 8.347376 153.524185
v 22.072201 1.192482 153.004898
v 18.777733 1.192482 153.004898
v 19.297009 8.311064 154.024521
v 21.552921 8.311064 154.024521
v 22.072201 1.156170 153.505234
v 18.777733 1.156170 153.505234
v 20.889774 8.975067 154.662750
v 20.394798 8.975067 154.457733
v 19.899822 8.975067 154.662750
v 19.694798 8.975067 155.157730
v 19.899822 8.975067 155.652710
v 20.394798 8.975067 155.857727
v 20.889774 8.975067 155.652710
v 21.094799 8.975067 155.157730
v 20.889774 28.615005 154.662750
v 20.394798 28.615005 154.457733
v 19.899822 28.615005 154.662750
v 19.694798 28.615005 155.157730
v 19.899822 28.615005 155.652710
v 20.394798 28.615005 155.857727
v 20.889774 28.615005 155.652710
v 21.094799 28.615005 155.157730
v 18.666248 27.692514 156.859161
v 22.180882 27.692514 156.859161
v 18.168636 34.069050 157.356766
v 22.678493 34.069050 157.356766
v 18.168636 34.069050 152.846909
v 22.678493 34.069050 152.846909
v 18.666248 27.692514 153.344513
v 22.180882 27.692514 153.344513
v 19.222733 28.702133 156.937943
v 21.624393 28.702133 156.937943
v 21.964432 33.059433 157.277985
v 18.882694 33.059433 157.277985
v 19.222733 28.733503 156.535965
v 21.624393 28.733503 156.535965
v 21.964432 33.090805 156.875992
v 18.882694 33.090805 156.875992
v 18.593266 28.627739 153.860001
v 18.593266 28.627739 156.343674
v 18.241619 33.133827 156.695328
v 18.241619 33.133827 153.508347
v 19.038250 28.662466 153.860001
v 19.038250 28.662466 156.343674
v 18.686604 33.168552 156.695328
v 18.686604 33.168552 153.508347
v 18.810036 33.162167 152.917679
v 22.037090 33.162167 152.917679
v 21.681023 28.599400 153.273758
v 19.166107 28.599400 153.273758
v 18.810036 33.199825 153.400269
v 22.037090 33.199825 153.400269
v 21.681023 28.637058 153.756332
v 19.166107 28.637058 153.756332
v 22.248470 28.558661 153.821915
v 22.248470 28.558661 156.381760
v 22.610901 33.202904 153.459488
v 22.610901 33.202904 156.744171
v 21.895931 28.586172 153.821915
v 21.895931 28.586172 156.381760
v 22.258362 33.230415 153.459488
v 22.258362 33.230415 156.744171
v 19.137318 35.303013 156.388077
v 18.600872 34.778908 156.924530
v 19.863960 35.488625 155.661438
v 21.709812 35.303013 156.388077
v 20.983170 35.488625 155.661438
v 22.246258 34.778908 156.924530
v 21.709812 35.303013 153.815598
v 20.983170 35.488625 154.542236
v 22.246258 34.778908 153.279144
v 19.137318 35.303013 153.815598
v 19.863960 35.488625 154.542236
v 18.600872 34.778908 153.279144
vt 0.051482 0.946846
vt 0.051328 0.803271
vt 0.372346 0.825577
vt 0.372451 0.923892
vt 0.052252 0.946773
vt 0.052187 0.794989
vt 0.382460 0.818944
vt 0.382401 0.922814
vt 0.037022 0.287814
vt 0.247133 0.287814
vt 0.213865 0.360064
vt 0.070290 0.360064
vt 0.214015 0.744130
vt 0.191235 0.671880
vt 0.070140 0.744130
vt 0.092920 0.671880
vt 0.055791 0.773204
vt 0.375116 0.796380
vt 0.372357 0.820604
vt 0.052968 0.797438
vt 0.375180 0.945326
vt 0.055708 0.968484
vt 0.052938 0.944257
vt 0.372380 0.921105
vt 0.037022 0.287814
vt 0.247133 0.287814
vt 0.220869 0.344854
vt 0.063286 0.344854
vt 0.214015 0.744130
vt 0.196031 0.687090
vt 0.070140 0.744130
vt 0.088125 0.687090
vt 0.373721 0.947931
vt 0.053286 0.971135
vt 0.051663 0.948727
vt 0.372099 0.925524
vt 0.053317 0.778777
vt 0.373745 0.802085
vt 0.372115 0.824493
vt 0.051688 0.801185
vt 0.067322 0.745971
vt 0.067322 0.602097
vt 0.211196 0.602097
vt 0.211196 0.745971
vt 0.015728 0.946882
vt 0.015574 0.803307
vt 0.408101 0.825542
vt 0.408204 0.923856
vt 0.028554 0.944260
vt 0.028548 0.797434
vt 0.396791 0.820607
vt 0.396756 0.921121
vt 0.031382 0.946784
vt 0.031343 0.794973
vt 0.403306 0.818904
vt 0.403283 0.922821
vt 0.394522 0.824496
vt 0.394507 0.925527
vt 0.029256 0.948724
vt 0.029280 0.801181
vt 0.053886 0.768537
vt 0.374903 0.790843
vt 0.375083 0.958621
vt 0.054114 0.981575
vt 0.037022 0.287814
vt 0.247133 0.287814
vt 0.217367 0.349091
vt 0.066788 0.349091
vt 0.214015 0.744130
vt 0.193632 0.676117
vt 0.070140 0.744130
vt 0.090522 0.676117
vt 0.053689 0.774242
vt 0.383965 0.798205
vt 0.383908 0.943575
vt 0.053757 0.967534
vt 0.214038 0.744127
vt 0.070163 0.744134
vt 0.088144 0.687094
vt 0.196050 0.687089
vt 0.037022 0.287821
vt 0.063289 0.344859
vt 0.247133 0.287810
vt 0.220872 0.344851
vt 0.269273 0.053778
vt 0.288276 0.053778
vt 0.289273 0.738239
vt 0.270602 0.738272
vt 0.306945 0.053750
vt 0.307943 0.738205
vt 0.325615 0.053723
vt 0.326615 0.738170
vt 0.344286 0.053696
vt 0.345288 0.738137
vt 0.362957 0.053669
vt 0.363960 0.738106
vt 0.381628 0.053641
vt 0.382631 0.738077
vt 0.400297 0.053614
vt 0.401300 0.738048
vt 0.418967 0.053586
vt 0.419969 0.738018
vt 0.716746 0.930676
vt 0.716747 0.806354
vt 0.942303 0.788753
vt 0.942302 0.948279
vt 0.945239 0.787552
vt 0.945111 0.947717
vt 0.718666 0.929862
vt 0.718766 0.805042
vt 0.635642 0.179503
vt 0.817577 0.179503
vt 0.817577 0.361438
vt 0.635642 0.361438
vt 0.717450 0.930436
vt 0.716955 0.804838
vt 0.944754 0.786156
vt 0.945390 0.947319
vt 0.714616 0.932021
vt 0.714616 0.803454
vt 0.947873 0.785250
vt 0.947874 0.950223
vt 0.674344 0.034984
vt 0.774883 0.034984
vt 0.758965 0.063865
vt 0.690263 0.063865
vt 0.768692 0.188509
vt 0.680536 0.188509
vt 0.695938 0.930676
vt 0.695938 0.806354
vt 0.715123 0.785545
vt 0.940679 0.767945
vt 0.963111 0.788753
vt 0.963110 0.948280
vt 0.940677 0.969088
vt 0.715122 0.951484
vt 0.467115 0.332165
vt 0.467115 0.231625
vt 0.493868 0.246371
vt 0.493868 0.317419
vt 0.622769 0.236312
vt 0.622769 0.327478
vt 0.691581 0.932021
vt 0.691581 0.803454
vt 0.712818 0.780419
vt 0.946075 0.762215
vt 0.970908 0.785249
vt 0.970909 0.950223
vt 0.946077 0.973258
vt 0.712819 0.955056
vt 0.770770 0.372342
vt 0.678457 0.372341
vt 0.774883 0.528806
vt 0.760584 0.502864
vt 0.674344 0.528806
vt 0.688643 0.502864
vt 0.969191 0.787571
vt 0.969062 0.947736
vt 0.943222 0.971667
vt 0.716778 0.953812
vt 0.694715 0.929843
vt 0.694815 0.805023
vt 0.716917 0.781090
vt 0.943389 0.763599
vt 0.982113 0.231625
vt 0.982113 0.332165
vt 0.957336 0.318508
vt 0.957336 0.245281
vt 0.824483 0.328876
vt 0.824483 0.234915
vt 0.700153 0.930505
vt 0.699657 0.804907
vt 0.715536 0.787546
vt 0.943336 0.768865
vt 0.962051 0.786088
vt 0.962687 0.947250
vt 0.944109 0.964621
vt 0.716169 0.947739
vt 0.792647 0.217391
vt 0.792647 0.346399
vt 0.656580 0.346399
vt 0.656580 0.217391
vt 0.691987 0.250961
vt 0.675017 0.234871
vt 0.710598 0.268606
vt 0.757240 0.250961
vt 0.738630 0.268606
vt 0.774210 0.234871
vt 0.757240 0.312829
vt 0.738629 0.295184
vt 0.774210 0.328919
vt 0.691987 0.312828
vt 0.710598 0.295184
vt 0.675017 0.328919
vn 0.000000 0.072384 0.997377
vn 0.000000 0.072384 0.997377
vn 0.000000 0.072384 0.997377
vn 0.000000 0.072384 0.997377
vn 0.000000 1.000000 0.000000
vn 0.000000 1.000000 0.000000
vn 0.000000 1.000000 0.000000
vn 0.000000 1.000000 0.000000
vn 0.000000 0.072387 -0.997377
vn 0.000000 0.072387 -0.997377
vn 0.000000 0.072387 -0.997377
vn 0.000000 0.072387 -0.997377
vn 0.997377 0.072386 0.000000
vn 0.997377 0.072386 0.000000
vn 0.997377 0.072386 0.000000
vn 0.997377 0.072386 0.000000
vn -0.997377 0.072386 0.000000
vn -0.997377 0.072386 0.000000
vn -0.997377 0.072386 0.000000
vn -0.997377 0.072386 0.000000
vn 0.997377 0.072385 0.000001
vn 0.997377 0.072385 -0.000001
vn 0.997377 0.072386 -0.000002
vn 0.997377 0.072386 0.000002
vn 0.997377 0.072387 -0.000001
vn 0.997377 0.072387 -0.000002
vn 0.997377 0.072387 0.000001
vn 0.997377 0.072387 0.000002
vn -0.072387 0.997377 0.000000
vn -0.072387 0.997377 0.000000
vn -0.072387 0.997377 0.000000
vn -0.072387 0.997377 0.000000
vn 0.005225 -0.072007 0.997390
vn 0.005225 -0.072007 0.997390
vn 0.005225 -0.072007 0.997391
vn 0.005225 -0.072007 0.997390
vn 0.072386 -0.997377 0.000000
vn 0.072386 -0.997377 0.000000
vn 0.072386 -0.997377 0.000000
vn 0.072386 -0.997377 0.000000
vn 0.005239 -0.072007 -0.997390
vn 0.005239 -0.072007 -0.997390
vn 0.005239 -0.072007 -0.997390
vn 0.005239 -0.072007 -0.997390
vn 0.000004 0.072393 0.997376
vn -0.000006 0.072393 0.997376
vn -0.000014 0.072390 0.997377
vn 0.000010 0.072390 0.997377
vn -0.000006 0.072394 0.997376
vn -0.000016 0.072390 0.997377
vn 0.000004 0.072394 0.997376
vn 0.000011 0.072390 0.997377
vn 0.000000 0.993399 -0.114708
vn 0.000000 0.993399 -0.114708
vn 0.000000 0.993399 -0.114708
vn 0.000000 0.993399 -0.114708
vn -0.997386 -0.071787 0.008289
vn -0.997386 -0.071787 0.008289
vn -0.997386 -0.071787 0.008289
vn -0.997386 -0.071787 0.008289
vn 0.000000 -0.993399 0.114708
vn 0.000000 -0.993399 0.114708
vn 0.000000 -0.993399 0.114708
vn 0.000000 -0.993399 0.114708
vn 0.997386 -0.071787 0.008289
vn 0.997386 -0.071787 0.008289
vn 0.997386 -0.071787 0.008289
vn 0.997386 -0.071787 0.008289
vn -0.997377 0.072387 0.000000
vn -0.997377 0.072388 -0.000000
vn -0.997377 0.072387 -0.000000
vn -0.997377 0.072386 0.000000
vn -0.997377 0.072387 -0.000000
vn -0.997377 0.072387 -0.000000
vn -0.997377 0.072386 0.000000
vn -0.997377 0.072385 0.000000
vn 0.072386 0.997377 0.000000
vn 0.072386 0.997377 0.000000
vn 0.072386 0.997377 0.000000
vn 0.072386 0.997377 0.000000
vn -0.005231 -0.072009 -0.997390
vn -0.005231 -0.072009 -0.997390
vn -0.005231 -0.072009 -0.997390
vn -0.005231 -0.072009 -0.997390
vn -0.072384 -0.997377 0.000000
vn -0.072384 -0.997377 0.000000
vn -0.072384 -0.997377 0.000000
vn -0.072384 -0.997377 0.000000
vn -0.005229 -0.072009 0.997390
vn -0.005229 -0.072009 0.997390
vn -0.005229 -0.072009 0.997390
vn -0.005229 -0.072009 0.997390
vn 0.000006 0.072388 -0.997377
vn -0.000006 0.072388 -0.997377
vn -0.000015 0.072388 -0.997377
vn 0.000015 0.072388 -0.997377
vn -0.000005 0.072388 -0.997377
vn -0.000013 0.072388 -0.997377
vn 0.000005 0.072388 -0.997377
vn 0.000013 0.072388 -0.997377
vn 0.000000 -0.997377 -0.072385
vn 0.000000 -0.997377 -0.072385
vn 0.000000 -0.997377 -0.072385
vn 0.000000 -0.997377 -0.072385
vn -0.997390 -0.072009 -0.005226
vn -0.997390 -0.072009 -0.005226
vn -0.997390 -0.072009 -0.005226
vn -0.997390 -0.072009 -0.005226
vn 0.000000 0.997377 0.072385
vn 0.000000 0.997377 0.072385
vn 0.000000 0.997377 0.072385
vn 0.000000 0.997377 0.072385
vn 0.997390 -0.072009 -0.005226
vn 0.997390 -0.072009 -0.005226
vn 0.997390 -0.072009 -0.005226
vn 0.997390 -0.072009 -0.005226
vn 0.707109 0.000000 -0.707105
vn 0.000000 0.000000 -1.000000
vn 0.000000 0.000000 -1.000000
vn 0.707109 0.000000 -0.707105
vn -0.707109 0.000000 -0.707105
vn -0.707109 0.000000 -0.707105
vn -1.000000 0.000000 0.000000
vn -1.000000 0.000000 0.000000
vn -0.707102 0.000000 0.707111
vn -0.707102 0.000000 0.707111
vn 0.000000 0.000000 1.000000
vn 0.000000 0.000000 1.000000
vn 0.707102 0.000000 0.707111
vn 0.707102 0.000000 0.707111
vn 1.000000 0.000000 0.000000
vn 1.000000 0.000000 0.000000
vn 0.000000 -0.077800 0.996969
vn 0.000000 -0.077800 0.996969
vn 0.000000 -0.077800 0.996969
vn 0.000000 -0.077800 0.996969
vn 0.000000 -0.077800 -0.996969
vn 0.000000 -0.077800 -0.996969
vn 0.000000 -0.077800 -0.996969
vn 0.000000 -0.077800 -0.996969
vn 0.000000 -1.000000 0.000000
vn 0.000000 -1.000000 0.000000
vn 0.000000 -1.000000 0.000000
vn 0.000000 -1.000000 0.000000
vn 0.996969 -0.077803 0.000000
vn 0.996969 -0.077803 0.000000
vn 0.996969 -0.077803 0.000000
vn 0.996969 -0.077803 0.000000
vn -0.996969 -0.077801 0.000000
vn -0.996969 -0.077801 0.000000
vn -0.996969 -0.077801 0.000000
vn -0.996969 -0.077801 0.000000
vn 0.000005 -0.077797 0.996969
vn -0.000005 -0.077797 0.996969
vn -0.000008 -0.077798 0.996969
vn 0.000008 -0.077798 0.996969
vn -0.000004 -0.077797 0.996969
vn -0.000007 -0.077798 0.996969
vn 0.000004 -0.077797 0.996969
vn 0.000007 -0.077798 0.996969
vn 0.000000 0.996969 0.077803
vn 0.000000 0.996969 0.077803
vn 0.000000 0.996969 0.077803
vn 0.000000 0.996969 0.077803
vn -0.996987 0.077331 0.006035
vn -0.996987 0.077331 0.006035
vn -0.996987 0.077331 0.006035
vn -0.996987 0.077331 0.006035
vn 0.000000 -0.996969 -0.077804
vn 0.000000 -0.996969 -0.077804
vn 0.000000 -0.996969 -0.077804
vn 0.000000 -0.996969 -0.077804
vn 0.996987 0.077332 0.006035
vn 0.996987 0.077332 0.006035
vn 0.996987 0.077332 0.006035
vn 0.996987 0.077332 0.006035
vn -0.996969 -0.077801 -0.000000
vn -0.996969 -0.077802 0.000000
vn -0.996969 -0.077801 0.000000
vn -0.996969 -0.077801 -0.000000
vn -0.996969 -0.077801 0.000000
vn -0.996969 -0.077800 0.000000
vn -0.996969 -0.077800 -0.000000
vn -0.996969 -0.077800 -0.000000
vn -0.077804 0.996969 0.000000
vn -0.077804 0.996969 0.000000
vn -0.077804 0.996969 0.000000
vn -0.077804 0.996969 0.000000
vn -0.006043 0.077334 -0.996987
vn -0.006043 0.077334 -0.996987
vn -0.006043 0.077334 -0.996987
vn -0.006043 0.077334 -0.996987
vn 0.077800 -0.996969 0.000000
vn 0.077800 -0.996969 0.000000
vn 0.077800 -0.996969 0.000000
vn 0.077800 -0.996969 0.000000
vn -0.006043 0.077334 0.996987
vn -0.006043 0.077334 0.996987
vn -0.006043 0.077334 0.996987
vn -0.006043 0.077334 0.996987
vn 0.000016 -0.077800 -0.996969
vn -0.000010 -0.077800 -0.996969
vn -0.000015 -0.077801 -0.996969
vn 0.000025 -0.077800 -0.996969
vn -0.000011 -0.077790 -0.996970
vn -0.000017 -0.077794 -0.996970
vn 0.000019 -0.077790 -0.996970
vn 0.000029 -0.077794 -0.996970
vn 0.000000 -0.996969 0.077799
vn 0.000000 -0.996969 0.077799
vn 0.000000 -0.996969 0.077799
vn 0.000000 -0.996969 0.077799
vn -0.996987 0.077329 -0.006034
vn -0.996987 0.077329 -0.006034
vn -0.996987 0.077329 -0.006034
vn -0.996987 0.077329 -0.006034
vn 0.000000 0.996969 -0.077803
vn 0.000000 0.996969 -0.077803
vn 0.000000 0.996969 -0.077803
vn 0.000000 0.996969 -0.077803
vn 0.996987 0.077330 -0.006035
vn 0.996987 0.077330 -0.006035
vn 0.996987 0.077330 -0.006035
vn 0.996987 0.077330 -0.006035
vn 0.996969 -0.077799 -0.000001
vn 0.996969 -0.077799 0.000001
vn 0.996969 -0.077799 0.000002
vn 0.996969 -0.077799 -0.000002
vn 0.996969 -0.077801 0.000001
vn 0.996969 -0.077801 0.000002
vn 0.996969 -0.077801 -0.000001
vn 0.996969 -0.077800 -0.000002
vn 0.077802 0.996969 0.000000
vn 0.077802 0.996969 0.000000
vn 0.077802 0.996969 0.000000
vn 0.077802 0.996969 0.000000
vn 0.006030 0.077332 0.996987
vn 0.006030 0.077332 0.996987
vn 0.006030 0.077332 0.996987
vn 0.006030 0.077332 0.996987
vn -0.077802 -0.996969 0.000000
vn -0.077802 -0.996969 0.000000
vn -0.077802 -0.996969 0.000000
vn -0.077802 -0.996969 0.000000
vn 0.006038 0.077328 -0.996987
vn 0.006038 0.077328 -0.996987
vn 0.006038 0.077328 -0.996987
vn 0.006038 0.077328 -0.996987
vn -0.821284 0.570520 0.000000
vn -0.698833 0.715285 0.000000
vn -0.698833 0.715285 0.000000
vn -0.821284 0.570520 0.000000
vn -0.125684 0.984076 0.125687
vn -0.096334 0.990676 0.096338
vn -0.096334 0.990676 -0.096338
vn -0.125684 0.984076 -0.125687
vn 0.125684 0.984076 0.125687
vn 0.096334 0.990676 0.096338
vn 0.000000 0.715292 0.698826
vn 0.000000 0.570523 0.821281
vn 0.000000 0.570523 0.821281
vn 0.000000 0.715292 0.698826
vn 0.125684 0.984076 -0.125687
vn 0.096334 0.990676 -0.096338
vn 0.698834 0.715284 0.000000
vn 0.821284 0.570520 0.000000
vn 0.821284 0.570520 0.000000
vn 0.698834 0.715284 0.000000
vn 0.000000 0.715292 -0.698826
vn 0.000000 0.570523 -0.821281
vn 0.000000 0.570523 -0.821281
vn 0.000000 0.715292 -0.698826
vn 0.000000 0.520077 0.854120
vn 0.000000 0.520077 0.854120
vn 0.854120 0.520076 0.000000
vn 0.854120 0.520076 0.000000
vn 0.000000 0.520077 -0.854120
vn 0.000000 0.520077 -0.854120
vn -0.854121 0.520075 0.000000
vn -0.854121 0.520075 0.000000
s off
g pCube24
usemtl blinn2SG
f 21/23/1 22/20/2 23/19/3 24/24/4
f 3/41/5 4/42/6 6/43/7 5/44/8
f 37/39/9 38/36/10 39/35/11 40/40/12
f 14/1/13 13/2/14 15/3/15 16/4/16
f 29/5/17 30/6/18 31/7/19 32/8/20
s 1
f 2/9/21 8/10/22 9/11/23 10/12/24
f 8/10/22 6/13/25 11/14/26 9/11/23
f 6/13/25 4/15/27 12/16/28 11/14/26
f 4/15/27 2/9/21 10/12/24 12/16/28
s off
f 10/45/29 9/46/30 13/2/31 14/1/32
f 9/61/33 11/62/34 15/3/35 13/2/36
f 11/47/37 12/48/38 16/4/39 15/3/40
f 12/63/41 10/64/42 14/1/43 16/4/44
s 2
f 1/65/45 2/66/46 18/67/47 17/68/48
f 2/66/46 4/69/49 19/70/50 18/67/47
f 4/69/49 3/71/51 20/72/52 19/70/50
f 3/71/51 1/65/45 17/68/48 20/72/52
s off
f 17/49/53 18/50/54 22/20/55 21/23/56
f 18/17/57 19/18/58 23/19/59 22/20/60
f 19/51/61 20/52/62 24/24/63 23/19/64
f 20/21/65 17/22/66 21/23/67 24/24/68
s 3
f 7/25/69 1/26/70 26/27/71 25/28/72
f 1/26/70 3/29/73 27/30/74 26/27/71
f 3/29/73 5/31/75 28/32/76 27/30/74
f 5/31/75 7/25/69 25/28/72 28/32/76
s off
f 25/53/77 26/54/78 30/6/79 29/5/80
f 26/73/81 27/74/82 31/7/83 30/6/84
f 27/55/85 28/56/86 32/8/87 31/7/88
f 28/75/89 25/76/90 29/5/91 32/8/92
s 4
f 5/77/93 6/78/94 34/79/95 33/80/96
f 6/78/94 8/81/97 35/82/98 34/79/95
f 8/81/97 7/83/99 36/84/100 35/82/98
f 7/83/99 5/77/93 33/80/96 36/84/100
s off
f 33/57/101 34/58/102 38/36/103 37/39/104
f 34/33/105 35/34/106 39/35/107 38/36/108
f 35/59/109 36/60/110 40/40/111 39/35/112
f 36/37/113 33/38/114 37/39/115 40/40/116
s 5
f 41/85/117 42/86/118 50/87/119 49/88/120
f 42/86/118 43/89/121 51/90/122 50/87/119
f 43/89/121 44/91/123 52/92/124 51/90/122
f 44/91/123 45/93/125 53/94/126 52/92/124
f 45/93/125 46/95/127 54/96/128 53/94/126
f 46/95/127 47/97/129 55/98/130 54/96/128
f 47/97/129 48/99/131 56/100/132 55/98/130
f 48/99/131 41/101/117 49/102/120 56/100/132
s off
f 69/103/133 70/104/134 71/105/135 72/106/136
f 85/107/137 86/108/138 87/109/139 88/110/140
f 63/111/141 64/112/142 58/113/143 57/114/144
f 94/115/145 93/116/146 95/117/147 96/118/148
f 77/119/149 78/120/150 79/121/151 80/122/152
s 6
f 57/123/153 58/124/154 66/125/155 65/126/156
f 58/124/154 60/179/157 67/127/158 66/125/155
f 60/179/157 59/182/159 68/128/160 67/127/158
f 59/182/159 57/123/153 65/126/156 68/128/160
s off
f 65/129/161 66/130/162 70/104/163 69/103/164
f 66/131/165 67/132/166 71/105/167 70/104/168
f 67/133/169 68/134/170 72/106/171 71/105/172
f 68/135/173 65/136/174 69/103/175 72/106/176
s 7
f 63/137/177 57/138/178 74/139/179 73/140/180
f 57/138/178 59/182/181 75/141/182 74/139/179
f 59/182/181 61/181/183 76/142/184 75/141/182
f 61/181/183 63/137/177 73/140/180 76/142/184
s off
f 73/143/185 74/144/186 78/120/187 77/119/188
f 74/145/189 75/146/190 79/121/191 78/120/192
f 75/147/193 76/148/194 80/122/195 79/121/196
f 76/149/197 73/150/198 77/119/199 80/122/200
s 8
f 61/181/201 62/180/202 82/151/203 81/152/204
f 62/180/202 64/153/205 83/154/206 82/151/203
f 64/153/205 63/155/207 84/156/208 83/154/206
f 63/155/207 61/181/201 81/152/204 84/156/208
s off
f 81/157/209 82/158/210 86/108/211 85/107/212
f 82/159/213 83/160/214 87/109/215 86/108/216
f 83/161/217 84/162/218 88/110/219 87/109/220
f 84/163/221 81/164/222 85/107/223 88/110/224
s 9
f 58/165/225 64/166/226 89/167/227 90/168/228
f 64/166/226 62/180/229 91/169/230 89/167/227
f 62/180/229 60/179/231 92/170/232 91/169/230
f 60/179/231 58/165/225 90/168/228 92/170/232
s off
f 90/171/233 89/172/234 93/116/235 94/115/236
f 89/173/237 91/174/238 95/117/239 93/116/240
f 91/175/241 92/176/242 96/118/243 95/117/244
f 92/177/245 90/178/246 94/115/247 96/118/248
s 10
f 98/184/249 97/183/250 106/192/251 108/194/252
s 11
f 97/183/253 99/185/254 107/193/255 106/192/256
f 99/185/254 97/183/253 100/186/257 101/187/258
s 12
f 97/183/259 98/184/260 102/188/261 100/186/262
s 11
f 101/187/258 100/186/257 103/189/263 104/190/264
s 13
f 100/186/265 102/188/266 105/191/267 103/189/268
s 11
f 104/190/264 103/189/263 106/192/256 107/193/255
s 14
f 103/189/269 105/191/270 108/194/271 106/192/272
s 11
f 99/185/254 101/187/258 104/190/264 107/193/255
s 12
f 59/182/273 60/179/274 102/188/261 98/184/260
s 13
f 60/179/275 62/180/276 105/191/267 102/188/266
s 14
f 62/180/277 61/181/278 108/194/271 105/191/270
s 10
f 61/181/279 59/182/280 98/184/249 108/194/252
