# This file uses centimeters as units for non-parametric coordinates.

mtllib Rock_Medium.mtl
g default
v -30.440285 4.462594 76.279907
v -28.874111 4.462594 77.118713
v -27.299747 4.462594 77.118713
v -25.695877 4.462594 76.081497
v -30.440285 6.248134 76.279907
v -28.870602 6.248842 77.113571
v -27.298998 6.250639 77.119896
v -25.695309 6.246016 76.078392
v -30.417610 7.705335 76.095993
v -28.885315 7.735709 76.634666
v -27.319332 7.839108 76.654747
v -26.387766 7.511449 75.742500
v -29.760117 9.162537 75.604691
v -28.624319 9.136252 75.972214
v -27.303312 9.205282 76.056953
v -26.441828 8.992472 75.230255
v -30.398943 9.207457 74.886604
v -28.844603 10.230070 74.272675
v -27.377728 10.947393 74.555443
v -26.199041 9.576987 74.155861
v -30.268599 9.262590 72.660904
v -28.844603 10.853626 72.463852
v -27.427654 11.180445 72.362831
v -25.941019 9.599560 72.869270
v -29.873470 9.255835 71.187988
v -28.844603 9.162537 70.635773
v -27.489624 9.162537 71.014664
v -26.229132 9.162537 71.829697
v -30.221247 7.722434 70.305679
v -28.844603 7.705335 70.062241
v -27.590155 7.705335 70.299065
v -25.761105 7.705335 71.365929
v -30.624172 6.250510 70.137810
v -28.844603 6.248134 69.550873
v -27.378119 6.248134 69.932869
v -25.233570 6.248134 70.695511
v -30.628445 4.462594 70.139984
v -28.844603 4.462594 70.106682
v -27.270241 4.462594 70.635773
v -25.676731 4.462594 70.661400
v -31.789093 4.462594 72.169449
v -24.863321 4.462594 72.725021
v -31.673239 4.462594 74.956406
v -24.882469 4.462594 74.527473
v -24.308979 6.248134 72.909447
v -24.871588 6.248134 74.529907
v -25.428289 7.705335 72.950111
v -25.910269 7.906850 73.982132
v -31.795961 6.248134 72.155312
v -31.673239 6.248134 74.956406
v -30.892380 8.328508 72.470901
v -30.869648 7.992939 74.858337
v -30.440285 4.471154 80.495811
v -28.874111 4.471154 81.334610
v -27.299747 4.471154 81.334610
v -25.695877 4.471154 80.297401
v -30.440285 5.320349 80.495811
v -28.870602 5.320762 81.329468
v -27.298998 5.321809 81.335800
v -25.695309 5.319115 80.294289
v -30.417610 6.169543 80.311890
v -28.885315 6.187244 80.850571
v -27.319332 6.247500 80.870651
v -26.387766 6.056555 79.958405
v -29.760117 7.018738 79.820595
v -28.624319 7.003420 80.188110
v -27.303312 7.043648 80.272858
v -26.441828 6.919632 79.446159
v -30.398943 7.044916 79.102509
v -28.844603 7.640851 78.488579
v -27.377728 8.058876 78.771347
v -26.199041 7.260262 78.371773
v -30.268599 7.077045 76.876808
v -28.844603 8.004232 76.679756
v -27.427654 8.194689 76.578728
v -25.941019 7.273417 77.085175
v -29.873470 7.073108 75.403900
v -28.844603 7.018738 74.851677
v -27.489624 7.018738 75.230560
v -26.229132 7.018738 76.045593
v -30.221247 6.179508 74.521584
v -28.844603 6.169543 74.278145
v -27.590155 6.169543 74.514969
v -25.761105 6.169543 75.581833
v -30.624172 5.321733 74.353714
v -28.844603 5.320349 73.766777
v -27.378119 5.320349 74.148766
v -25.233570 5.320349 74.911423
v -30.628445 4.471154 74.355881
v -28.844603 4.471154 74.322578
v -27.270241 4.471154 74.851677
v -25.676731 4.471154 74.877304
v -31.789093 4.471154 76.385353
v -24.863321 4.471154 76.940926
v -31.673239 4.471154 79.172302
v -24.882469 4.471154 78.743378
v -24.308979 5.320349 77.125343
v -24.871588 5.320349 78.745804
v -25.428289 6.169543 77.166016
v -25.910269 6.286978 78.198036
v -31.795961 5.320349 76.371208
v -31.673239 5.320349 79.172302
v -30.892380 6.532702 76.686813
v -30.869648 6.337146 79.074242
v -35.738365 4.865633 76.472641
v -34.943550 4.865633 78.061584
v -33.657902 4.865633 78.970291
v -31.749496 4.865633 79.049004
v -35.738365 7.950420 76.472641
v -34.937717 7.951644 78.059418
v -33.657974 7.954749 78.971680
v -31.747238 7.946761 79.046799
v -35.613697 10.467955 76.335541
v -34.673317 10.520432 77.659843
v -33.406101 10.699069 78.580093
v -32.118839 10.132988 78.372833
v -34.793205 12.985491 76.313828
v -34.077827 12.940081 77.269516
v -33.047981 13.059340 78.101181
v -31.867325 12.691677 77.923317
v -34.900414 13.063096 75.358704
v -33.276768 14.829815 75.754501
v -32.242104 16.069099 76.832077
v -31.048939 13.701516 77.186081
v -33.509335 13.158348 73.616402
v -32.232742 15.907103 74.277390
v -31.017334 16.471729 75.012741
v -30.095638 13.740513 76.284363
v -32.336529 13.146677 72.641663
v -31.177605 12.985491 72.784561
v -30.289803 12.985491 73.876038
v -29.730888 12.985491 75.269135
v -32.111271 10.497497 71.720428
v -30.846573 10.467955 72.316208
v -29.958866 10.467955 73.233643
v -29.081013 10.467955 75.160553
v -32.343414 7.954526 71.350777
v -30.551418 7.950420 71.898613
v -29.574348 7.950420 73.056992
v -28.263264 7.950420 74.917572
v -32.348156 4.865633 71.350082
v -30.872223 4.865633 72.352493
v -29.891956 4.865633 73.693253
v -28.605469 4.865633 74.633926
v -34.467335 4.865633 72.337463
v -29.132317 4.865633 76.788597
v -35.981312 4.865633 74.680206
v -30.188297 4.865633 78.249451
v -28.786079 7.950420 77.259155
v -30.180813 7.950420 78.257721
v -29.723595 10.467955 76.646317
v -30.712852 10.816103 77.210892
v -34.464787 7.950420 72.321960
v -35.981312 7.950420 74.680206
v -33.909058 11.544580 73.101212
v -35.268482 10.964833 75.063942
vt 0.111785 0.039795
vt 0.203938 0.020871
vt 0.214410 0.070819
vt 0.122046 0.089761
vt 0.296574 0.001848
vt 0.306896 0.051891
vt 0.475612 0.062629
vt 0.486088 0.124045
vt 0.435910 0.132794
vt 0.425231 0.071151
vt 0.224073 0.118349
vt 0.123312 0.144817
vt 0.336733 0.109387
vt 0.395637 0.160131
vt 0.239810 0.154509
vt 0.163678 0.176516
vt 0.326586 0.150450
vt 0.349706 0.199180
vt 0.226578 0.256597
vt 0.145693 0.219631
vt 0.301877 0.245128
vt 0.340388 0.266237
vt 0.226578 0.365248
vt 0.151858 0.353292
vt 0.307430 0.376581
vt 0.376797 0.341724
vt 0.226578 0.475057
vt 0.164458 0.441761
vt 0.307968 0.452298
vt 0.380934 0.402438
vt 0.225073 0.504083
vt 0.133070 0.503707
vt 0.299004 0.486719
vt 0.422475 0.425809
vt 0.237447 0.547743
vt 0.134562 0.576747
vt 0.318439 0.520527
vt 0.459954 0.470578
vt 0.251326 0.596828
vt 0.148217 0.625982
vt 0.342326 0.571098
vt 0.434434 0.545055
vt 0.519991 0.322790
vt 0.540834 0.444982
vt 0.467845 0.320447
vt 0.501785 0.216062
vt 0.451477 0.224496
vt 0.417151 0.326616
vt 0.399774 0.266694
vt 0.009085 0.507581
vt 0.006741 0.385698
vt 0.057757 0.385566
vt 0.060170 0.506728
vt 0.003521 0.218323
vt 0.054521 0.217342
vt 0.001992 0.138838
vt 0.052992 0.137857
vt 0.130202 0.365212
vt 0.115699 0.222056
vt 0.111785 0.039795
vt 0.203938 0.020871
vt 0.214410 0.070819
vt 0.122046 0.089761
vt 0.296574 0.001848
vt 0.306896 0.051891
vt 0.475612 0.062629
vt 0.486088 0.124045
vt 0.435910 0.132794
vt 0.425231 0.071151
vt 0.224073 0.118349
vt 0.123312 0.144817
vt 0.336733 0.109387
vt 0.395637 0.160131
vt 0.239810 0.154509
vt 0.163678 0.176516
vt 0.326586 0.150450
vt 0.349706 0.199180
vt 0.226578 0.256597
vt 0.145693 0.219631
vt 0.301877 0.245128
vt 0.340388 0.266237
vt 0.226578 0.365248
vt 0.151858 0.353292
vt 0.307430 0.376581
vt 0.376797 0.341724
vt 0.226578 0.475057
vt 0.164458 0.441761
vt 0.307968 0.452298
vt 0.380934 0.402438
vt 0.225073 0.504083
vt 0.133070 0.503707
vt 0.299004 0.486719
vt 0.422475 0.425809
vt 0.237447 0.547743
vt 0.134562 0.576747
vt 0.318439 0.520527
vt 0.459954 0.470578
vt 0.251326 0.596828
vt 0.148217 0.625982
vt 0.342326 0.571098
vt 0.434434 0.545055
vt 0.519991 0.322790
vt 0.540834 0.444982
vt 0.467845 0.320447
vt 0.501785 0.216062
vt 0.451477 0.224496
vt 0.417151 0.326616
vt 0.399774 0.266694
vt 0.009085 0.507581
vt 0.006741 0.385698
vt 0.057757 0.385566
vt 0.060170 0.506728
vt 0.003521 0.218323
vt 0.054521 0.217342
vt 0.001992 0.138838
vt 0.052992 0.137857
vt 0.130202 0.365212
vt 0.115699 0.222056
vt 0.111785 0.039795
vt 0.203938 0.020871
vt 0.214410 0.070819
vt 0.122046 0.089761
vt 0.296574 0.001848
vt 0.306896 0.051891
vt 0.475612 0.062629
vt 0.486088 0.124045
vt 0.435910 0.132794
vt 0.425231 0.071151
vt 0.224073 0.118349
vt 0.123312 0.144817
vt 0.336733 0.109387
vt 0.395637 0.160131
vt 0.239810 0.154509
vt 0.163678 0.176516
vt 0.326586 0.150450
vt 0.349706 0.199180
vt 0.226578 0.256597
vt 0.145693 0.219631
vt 0.301877 0.245128
vt 0.340388 0.266237
vt 0.226578 0.365248
vt 0.151858 0.353292
vt 0.307430 0.376581
vt 0.376797 0.341724
vt 0.226578 0.475057
vt 0.164458 0.441761
vt 0.307968 0.452298
vt 0.380934 0.402438
vt 0.225073 0.504083
vt 0.133070 0.503707
vt 0.299004 0.486719
vt 0.422475 0.425809
vt 0.237447 0.547743
vt 0.134562 0.576747
vt 0.318439 0.520527
vt 0.459954 0.470578
vt 0.251326 0.596828
vt 0.148217 0.625982
vt 0.342326 0.571098
vt 0.434434 0.545055
vt 0.519991 0.322790
vt 0.540834 0.444982
vt 0.467845 0.320447
vt 0.501785 0.216062
vt 0.451477 0.224496
vt 0.417151 0.326616
vt 0.399774 0.266694
vt 0.009085 0.507581
vt 0.006741 0.385698
vt 0.057757 0.385566
vt 0.060170 0.506728
vt 0.003521 0.218323
vt 0.054521 0.217342
vt 0.001992 0.138838
vt 0.052992 0.137857
vt 0.130202 0.365212
vt 0.115699 0.222056
vn -0.470594 0.001733 0.882349
vn -0.258283 0.001484 0.966068
vn -0.234973 0.116510 0.964994
vn -0.440195 0.093133 0.893059
vn 0.309954 0.000667 0.950751
vn 0.305196 0.147866 0.940740
vn 0.543851 0.000252 0.839182
vn 0.574145 0.132593 0.807946
vn -0.203642 0.333157 0.920618
vn -0.355771 0.302927 0.884117
vn 0.309304 0.360020 0.880180
vn 0.644846 0.318489 0.694793
vn -0.231621 0.608298 0.759161
vn -0.404977 0.641762 0.651257
vn 0.236665 0.574386 0.783627
vn 0.822980 0.322547 0.467620
vn -0.458440 0.829965 0.317791
vn -0.720057 0.650655 0.241177
vn 0.212604 0.885187 0.413816
vn 0.838413 0.471382 0.273610
vn -0.406638 0.880179 -0.244807
vn -0.759350 0.641250 -0.110386
vn 0.266364 0.908333 -0.322461
vn 0.850079 0.510242 -0.130454
vn -0.144736 0.586927 -0.796598
vn -0.622295 0.597034 -0.506260
vn 0.313267 0.520248 -0.794485
vn 0.687533 0.429869 -0.585244
vn -0.030590 0.349387 -0.936479
vn -0.253473 0.333526 -0.908027
vn 0.332990 0.371774 -0.866546
vn 0.425865 0.388998 -0.816896
vn 0.011974 -0.018790 -0.999752
vn -0.203427 0.007135 -0.979064
vn 0.293441 0.033510 -0.955390
vn 0.311538 0.111042 -0.943724
vn 0.048894 -0.237497 -0.970157
vn -0.169591 -0.151844 -0.973747
vn 0.232637 -0.247467 -0.940553
vn 0.202229 -0.198588 -0.958992
vn 0.962642 -0.211351 -0.169268
vn 0.901729 -0.229458 -0.366378
vn 0.932962 0.067553 -0.353580
vn 0.985192 0.142845 -0.094831
vn 0.943415 -0.084137 0.320763
vn 0.909789 0.240382 0.338380
vn 0.884418 -0.002749 0.466688
vn 0.854218 0.288135 0.432770
vn 0.850176 0.452394 -0.269334
vn 0.885058 0.465283 -0.013568
vn 0.874158 0.377269 0.305804
vn 0.827364 0.440966 0.347876
vn -0.866399 -0.002909 -0.499343
vn -0.977421 -0.002370 -0.211288
vn -0.959764 0.201708 -0.195362
vn -0.864072 0.190228 -0.466040
vn -0.950076 -0.001131 0.312016
vn -0.947125 0.183278 0.263368
vn -0.731692 0.000000 0.681635
vn -0.766775 0.109853 0.632446
vn -0.893248 0.424661 -0.147551
vn -0.832206 0.386066 -0.397978
vn -0.893964 0.398914 0.204198
vn -0.788361 0.300881 0.536616
vn -0.470587 0.003643 0.882346
vn -0.258455 0.003119 0.966018
vn -0.225579 0.217227 0.949698
vn -0.431589 0.177499 0.884435
vn 0.309890 0.001400 0.950772
vn 0.292459 0.271212 0.917012
vn 0.543848 0.000529 0.839183
vn 0.564930 0.239897 0.789496
vn -0.189081 0.515975 0.835475
vn -0.330215 0.473045 0.816815
vn 0.271619 0.554462 0.786636
vn 0.594245 0.495144 0.633802
vn -0.175983 0.795314 0.580091
vn -0.298982 0.817988 0.491432
vn 0.187135 0.759894 0.622529
vn 0.747016 0.514301 0.421262
vn -0.296847 0.933265 0.202233
vn -0.538974 0.822162 0.183183
vn 0.135120 0.949400 0.283519
vn 0.710769 0.668846 0.217837
vn -0.271835 0.950435 -0.150928
vn -0.568588 0.818913 -0.078037
vn 0.179429 0.957367 -0.226394
vn 0.705806 0.702852 -0.088526
vn -0.109383 0.775649 -0.621614
vn -0.484882 0.784563 -0.386459
vn 0.249638 0.722330 -0.644919
vn 0.584991 0.634254 -0.505477
vn -0.027596 0.537168 -0.843024
vn -0.230029 0.511946 -0.827646
vn 0.290813 0.565551 -0.771738
vn 0.373187 0.586953 -0.718483
vn 0.008940 -0.033242 -0.999407
vn -0.205338 -0.006151 -0.978672
vn 0.301166 0.064498 -0.951388
vn 0.321541 0.243831 -0.914963
vn 0.049292 -0.460121 -0.886487
vn -0.163296 -0.307329 -0.937488
vn 0.210106 -0.467686 -0.858560
vn 0.189833 -0.391953 -0.900187
vn 0.891789 -0.417373 -0.174677
vn 0.830066 -0.444122 -0.337263
vn 0.932461 0.079682 -0.352373
vn 0.957384 0.278210 -0.077553
vn 0.932194 -0.174795 0.316956
vn 0.846755 0.426310 0.318222
vn 0.884406 -0.005778 0.466683
vn 0.774032 0.498530 0.390311
vn 0.712228 0.664348 -0.226657
vn 0.741547 0.670833 -0.009565
vn 0.764869 0.585246 0.269187
vn 0.699546 0.650405 0.295990
vn -0.866386 -0.006116 -0.499338
vn -0.977684 -0.004976 -0.210024
vn -0.914801 0.357706 -0.187580
vn -0.827200 0.345807 -0.442897
vn -0.950074 -0.002377 0.312014
vn -0.911277 0.331531 0.244255
vn -0.731695 0.000000 0.681632
vn -0.758903 0.203608 0.618554
vn -0.770695 0.624425 -0.126974
vn -0.732930 0.582873 -0.350816
vn -0.782562 0.595860 0.180409
vn -0.726382 0.477635 0.494200
vn -0.893570 0.001002 0.448923
vn -0.768465 0.000859 0.639891
vn -0.753442 0.068157 0.653972
vn -0.877581 0.053709 0.476410
vn -0.295627 0.000387 0.955303
vn -0.293209 0.087499 0.952036
vn 0.202048 -0.000708 0.979375
vn 0.247431 0.131290 0.959969
vn -0.722093 0.201156 0.661905
vn -0.825543 0.182860 0.533893
vn -0.262126 0.216829 0.940359
vn 0.327259 0.242806 0.913207
vn -0.722521 0.405731 0.559773
vn -0.831580 0.438784 0.340505
vn -0.286124 0.387218 0.876468
vn 0.420890 0.183265 0.888406
vn -0.768131 0.640291 0.001467
vn -0.853693 0.452292 -0.258149
vn -0.043611 0.776455 0.628662
vn 0.551082 0.302116 0.777840
vn -0.219405 0.751531 -0.622143
vn -0.646236 0.437713 -0.625129
vn 0.547873 0.827711 -0.121366
vn 0.858767 0.335458 0.387282
vn 0.384651 0.389933 -0.836658
vn -0.241257 0.398620 -0.884815
vn 0.792484 0.332471 -0.511305
vn 0.962022 0.262973 -0.073211
vn 0.537790 0.211555 -0.816104
vn 0.328453 0.203550 -0.922327
vn 0.812852 0.226124 -0.536787
vn 0.864451 0.237322 -0.443174
vn 0.586332 -0.010666 -0.810001
vn 0.397781 0.007860 -0.917447
vn 0.790212 0.019224 -0.612532
vn 0.801573 0.061888 -0.594685
vn 0.609507 -0.139565 -0.780399
vn 0.426823 -0.088572 -0.899987
vn 0.748937 -0.147321 -0.646057
vn 0.728271 -0.116483 -0.675316
vn 0.893104 -0.123544 0.432554
vn 0.964874 -0.135203 0.225253
vn 0.966592 0.049909 0.251416
vn 0.867153 0.085402 0.490666
vn 0.586654 -0.048818 0.808365
vn 0.558460 0.142971 0.817118
vn 0.915168 0.277082 0.292734
vn 0.790222 0.292757 0.538369
vn 0.569320 0.217545 0.792811
vn -0.419298 -0.001682 -0.907847
vn -0.675854 -0.001372 -0.737035
vn -0.681451 0.120335 -0.721903
vn -0.441881 0.110951 -0.890186
vn -0.955937 -0.000655 -0.293571
vn -0.936818 0.108202 -0.332661
vn -0.990939 0.000000 0.134312
vn -0.995203 0.064675 0.073402
vn -0.687312 0.264625 -0.676443
vn -0.472673 0.234147 -0.849562
vn -0.894550 0.246001 -0.373182
vn -0.984097 0.176859 -0.016530
s 1
g polySurface27
usemtl blinn1SG
f 1/1/1 2/2/2 6/3/3 5/4/4
f 2/2/2 3/5/5 7/6/6 6/3/3
f 3/7/5 4/8/7 8/9/8 7/10/6
f 5/4/4 6/3/3 10/11/9 9/12/10
f 6/3/3 7/6/6 11/13/11 10/11/9
f 7/10/6 8/9/8 12/14/12 11/13/11
f 9/12/10 10/11/9 14/15/13 13/16/14
f 10/11/9 11/13/11 15/17/15 14/15/13
f 11/13/11 12/14/12 16/18/16 15/17/15
f 13/16/14 14/15/13 18/19/17 17/20/18
f 14/15/13 15/17/15 19/21/19 18/19/17
f 15/17/15 16/18/16 20/22/20 19/21/19
f 17/20/18 18/19/17 22/23/21 21/24/22
f 18/19/17 19/21/19 23/25/23 22/23/21
f 19/21/19 20/22/20 24/26/24 23/25/23
f 21/24/22 22/23/21 26/27/25 25/28/26
f 22/23/21 23/25/23 27/29/27 26/27/25
f 23/25/23 24/26/24 28/30/28 27/29/27
f 25/28/26 26/27/25 30/31/29 29/32/30
f 26/27/25 27/29/27 31/33/31 30/31/29
f 27/29/27 28/30/28 32/34/32 31/33/31
f 29/32/30 30/31/29 34/35/33 33/36/34
f 30/31/29 31/33/31 35/37/35 34/35/33
f 31/33/31 32/34/32 36/38/36 35/37/35
f 33/36/34 34/35/33 38/39/37 37/40/38
f 34/35/33 35/37/35 39/41/39 38/39/37
f 35/37/35 36/38/36 40/42/40 39/41/39
f 42/43/41 40/44/42 36/38/43 45/45/44
f 44/46/45 42/43/41 45/45/44 46/47/46
f 4/8/47 44/46/45 46/47/46 8/9/48
f 45/45/44 36/38/43 32/34/49 47/48/50
f 46/47/46 45/45/44 47/48/50 48/49/51
f 8/9/48 46/47/46 48/49/51 12/14/52
f 47/48/50 32/34/49 28/30/28 24/26/24
f 48/49/51 47/48/50 24/26/24 20/22/20
f 12/14/52 48/49/51 20/22/20 16/18/16
f 37/50/53 41/51/54 49/52/55 33/53/56
f 41/51/54 43/54/57 50/55/58 49/52/55
f 43/54/57 1/56/59 5/57/60 50/55/58
f 33/53/56 49/52/55 51/58/61 29/32/62
f 49/52/55 50/55/58 52/59/63 51/58/61
f 50/55/58 5/57/60 9/12/64 52/59/63
f 29/32/62 51/58/61 21/24/22 25/28/26
f 51/58/61 52/59/63 17/20/18 21/24/22
f 52/59/63 9/12/64 13/16/14 17/20/18
s 4
f 53/60/65 54/61/66 58/62/67 57/63/68
f 54/61/66 55/64/69 59/65/70 58/62/67
f 55/66/69 56/67/71 60/68/72 59/69/70
f 57/63/68 58/62/67 62/70/73 61/71/74
f 58/62/67 59/65/70 63/72/75 62/70/73
f 59/69/70 60/68/72 64/73/76 63/72/75
f 61/71/74 62/70/73 66/74/77 65/75/78
f 62/70/73 63/72/75 67/76/79 66/74/77
f 63/72/75 64/73/76 68/77/80 67/76/79
f 65/75/78 66/74/77 70/78/81 69/79/82
f 66/74/77 67/76/79 71/80/83 70/78/81
f 67/76/79 68/77/80 72/81/84 71/80/83
f 69/79/82 70/78/81 74/82/85 73/83/86
f 70/78/81 71/80/83 75/84/87 74/82/85
f 71/80/83 72/81/84 76/85/88 75/84/87
f 73/83/86 74/82/85 78/86/89 77/87/90
f 74/82/85 75/84/87 79/88/91 78/86/89
f 75/84/87 76/85/88 80/89/92 79/88/91
f 77/87/90 78/86/89 82/90/93 81/91/94
f 78/86/89 79/88/91 83/92/95 82/90/93
f 79/88/91 80/89/92 84/93/96 83/92/95
f 81/91/94 82/90/93 86/94/97 85/95/98
f 82/90/93 83/92/95 87/96/99 86/94/97
f 83/92/95 84/93/96 88/97/100 87/96/99
f 85/95/98 86/94/97 90/98/101 89/99/102
f 86/94/97 87/96/99 91/100/103 90/98/101
f 87/96/99 88/97/100 92/101/104 91/100/103
f 94/102/105 92/103/106 88/97/107 97/104/108
f 96/105/109 94/102/105 97/104/108 98/106/110
f 56/67/111 96/105/109 98/106/110 60/68/112
f 97/104/108 88/97/107 84/93/113 99/107/114
f 98/106/110 97/104/108 99/107/114 100/108/115
f 60/68/112 98/106/110 100/108/115 64/73/116
f 99/107/114 84/93/113 80/89/92 76/85/88
f 100/108/115 99/107/114 76/85/88 72/81/84
f 64/73/116 100/108/115 72/81/84 68/77/80
f 89/109/117 93/110/118 101/111/119 85/112/120
f 93/110/118 95/113/121 102/114/122 101/111/119
f 95/113/121 53/115/123 57/116/124 102/114/122
f 85/112/120 101/111/119 103/117/125 81/91/126
f 101/111/119 102/114/122 104/118/127 103/117/125
f 102/114/122 57/116/124 61/71/128 104/118/127
f 81/91/126 103/117/125 73/83/86 77/87/90
f 103/117/125 104/118/127 69/79/82 73/83/86
f 104/118/127 61/71/128 65/75/78 69/79/82
s 7
f 105/119/129 106/120/130 110/121/131 109/122/132
f 106/120/130 107/123/133 111/124/134 110/121/131
f 107/125/133 108/126/135 112/127/136 111/128/134
f 109/122/132 110/121/131 114/129/137 113/130/138
f 110/121/131 111/124/134 115/131/139 114/129/137
f 111/128/134 112/127/136 116/132/140 115/131/139
f 113/130/138 114/129/137 118/133/141 117/134/142
f 114/129/137 115/131/139 119/135/143 118/133/141
f 115/131/139 116/132/140 120/136/144 119/135/143
f 117/134/142 118/133/141 122/137/145 121/138/146
f 118/133/141 119/135/143 123/139/147 122/137/145
f 119/135/143 120/136/144 124/140/148 123/139/147
f 121/138/146 122/137/145 126/141/149 125/142/150
f 122/137/145 123/139/147 127/143/151 126/141/149
f 123/139/147 124/140/148 128/144/152 127/143/151
f 125/142/150 126/141/149 130/145/153 129/146/154
f 126/141/149 127/143/151 131/147/155 130/145/153
f 127/143/151 128/144/152 132/148/156 131/147/155
f 129/146/154 130/145/153 134/149/157 133/150/158
f 130/145/153 131/147/155 135/151/159 134/149/157
f 131/147/155 132/148/156 136/152/160 135/151/159
f 133/150/158 134/149/157 138/153/161 137/154/162
f 134/149/157 135/151/159 139/155/163 138/153/161
f 135/151/159 136/152/160 140/156/164 139/155/163
f 137/154/162 138/153/161 142/157/165 141/158/166
f 138/153/161 139/155/163 143/159/167 142/157/165
f 139/155/163 140/156/164 144/160/168 143/159/167
f 146/161/169 144/162/170 140/156/171 149/163/172
f 148/164/173 146/161/169 149/163/172 150/165/174
f 108/126/135 148/164/173 150/165/174 112/127/136
f 149/163/172 140/156/171 136/152/175 151/166/176
f 150/165/174 149/163/172 151/166/176 152/167/177
f 112/127/136 150/165/174 152/167/177 116/132/140
f 151/166/176 136/152/175 132/148/156 128/144/152
f 152/167/177 151/166/176 128/144/152 124/140/148
f 116/132/140 152/167/177 124/140/148 120/136/144
f 141/168/178 145/169/179 153/170/180 137/171/181
f 145/169/179 147/172/182 154/173/183 153/170/180
f 147/172/182 105/174/184 109/175/185 154/173/183
f 137/171/181 153/170/180 155/176/186 133/150/187
f 153/170/180 154/173/183 156/177/188 155/176/186
f 154/173/183 109/175/185 113/130/189 156/177/188
f 133/150/187 155/176/186 125/142/150 129/146/154
f 155/176/186 156/177/188 121/138/146 125/142/150
f 156/177/188 113/130/189 117/134/142 121/138/146
