# This file uses centimeters as units for non-parametric coordinates.

mtllib SnowBump_Mid.mtl
g default
v 6.202649 2.939806 119.086769
v 14.082360 6.716659 117.404678
v 16.681808 6.716659 117.404678
v 19.439219 6.716659 117.404678
v 23.189133 6.716659 117.404678
v 30.546381 2.939806 119.086769
v 10.083863 9.789502 117.124664
v 13.599888 12.600633 117.124664
v 16.968548 13.535810 117.124664
v 19.195143 13.535810 117.124664
v 23.492798 12.600633 117.124664
v 26.533390 9.443521 117.124664
v 9.809271 9.498159 103.695892
v 13.621718 12.320697 103.695892
v 16.778175 13.239051 103.695892
v 19.383024 13.239051 103.695892
v 23.626289 12.320697 103.695892
v 25.998329 9.396123 103.695892
v 10.872505 8.744475 94.565292
v 14.195387 11.193258 94.565292
v 16.946524 11.990005 94.565292
v 19.216881 11.990005 94.565292
v 22.915270 11.193258 94.565292
v 25.305845 8.655955 94.565292
v 11.751157 7.456985 87.609230
v 14.669470 9.391493 87.609230
v 17.085644 10.087466 87.609230
v 19.079578 10.087466 87.609230
v 22.327681 9.391493 87.609230
v 24.427197 7.379662 87.609230
v 12.596492 6.450772 81.491669
v 15.125574 7.639195 81.491669
v 17.219490 8.233412 81.491669
v 18.947483 8.233412 81.491669
v 21.762369 7.639195 81.491669
v 23.581861 6.384754 81.491669
v 12.596492 6.012753 76.148048
v 15.125574 6.544818 76.148048
v 17.219490 6.791933 76.148048
v 18.947483 6.791933 76.148048
v 21.297453 6.657200 76.148048
v 23.581861 6.230338 76.148048
v 9.921103 2.154092 65.941574
v 14.351931 2.154092 65.941574
v 16.762699 2.154092 65.941574
v 19.319963 2.154092 65.941574
v 22.797691 2.154092 65.941574
v 26.178398 2.154092 65.941574
v 9.921103 2.154092 72.842880
v 14.975222 5.930944 78.707367
v 16.992575 5.076286 78.707367
v 19.132517 5.076286 78.707367
v 22.042713 5.076286 78.707367
v 26.178398 0.543762 72.842880
v 8.670090 2.039848 80.780861
v 14.498991 5.816701 85.349937
v 16.826820 4.962043 85.349937
v 19.296104 4.962043 85.349937
v 22.654186 4.962043 85.349937
v 27.429413 1.185190 80.780861
v 7.369764 2.111439 89.783142
v 14.003993 5.888292 92.883133
v 16.654531 5.888292 92.883133
v 19.466137 5.888292 92.883133
v 23.289751 5.888292 92.883133
v 28.729731 2.111439 89.783142
v 5.796278 2.429171 101.622345
v 13.405014 6.206023 102.790283
v 16.446049 6.206023 102.790283
v 19.671890 6.206023 102.790283
v 24.058836 6.206023 102.790283
v 29.754545 2.429171 101.622345
v 6.779783 2.939806 126.720306
v 14.082360 6.716659 123.792496
v 13.599888 12.341866 122.823578
v 10.473845 9.530735 122.823578
v 16.681808 6.716659 123.792496
v 16.968548 13.277043 122.823578
v 19.439219 6.716659 123.792496
v 19.195143 13.277043 122.823578
v 23.189133 6.716659 123.792496
v 23.492798 12.341866 122.823578
v 30.546381 2.939806 126.720306
v 26.533390 9.443521 122.823578
v 7.583171 2.939806 134.431000
v 14.082360 6.716659 130.244904
v 13.599888 11.895660 129.307541
v 11.016705 9.084378 128.580109
v 16.681808 6.716659 130.244904
v 16.968548 12.830838 129.307541
v 19.439219 6.716659 130.244904
v 19.195143 12.830838 129.307541
v 23.189133 6.716659 130.244904
v 23.492798 11.895660 129.307541
v 29.366695 2.939806 134.431000
v 25.736256 8.997164 128.580109
v 8.304549 2.939806 143.332062
v 14.082360 6.716659 137.693375
v 14.032251 10.166604 135.225311
v 12.111576 7.971551 135.225311
v 16.681808 6.716659 137.693375
v 17.095396 11.009731 135.225311
v 19.439219 6.716659 137.693375
v 19.120054 11.009731 135.225311
v 23.189133 6.716659 137.693375
v 22.551311 10.166604 135.225311
v 28.919575 2.939806 143.332062
v 24.826706 7.892922 135.225311
v 9.098877 2.895695 151.616943
v 13.284946 2.895695 151.616943
v 14.093863 8.823416 140.493439
v 12.040897 7.697140 140.493439
v 16.391329 2.895695 151.616943
v 16.968548 9.516908 140.493439
v 19.686476 2.895695 151.616943
v 19.195143 9.516908 140.493439
v 24.167681 2.895695 151.616943
v 22.650625 8.823416 140.493439
v 28.970020 2.895695 151.616943
v 25.468216 7.632465 140.493439
vt 0.375000 0.000000
vt 0.425000 0.000000
vt 0.475000 0.000000
vt 0.525000 0.000000
vt 0.575000 0.000000
vt 0.625000 0.000000
vt 0.375000 0.250000
vt 0.425000 0.250000
vt 0.475000 0.250000
vt 0.525000 0.250000
vt 0.575000 0.250000
vt 0.625000 0.250000
vt 0.375000 0.300000
vt 0.425000 0.300000
vt 0.475000 0.300000
vt 0.525000 0.300000
vt 0.575000 0.300000
vt 0.625000 0.300000
vt 0.375000 0.350000
vt 0.425000 0.350000
vt 0.475000 0.350000
vt 0.525000 0.350000
vt 0.575000 0.350000
vt 0.625000 0.350000
vt 0.375000 0.400000
vt 0.425000 0.400000
vt 0.475000 0.400000
vt 0.525000 0.400000
vt 0.575000 0.400000
vt 0.625000 0.400000
vt 0.375000 0.450000
vt 0.425000 0.450000
vt 0.475000 0.450000
vt 0.525000 0.450000
vt 0.575000 0.450000
vt 0.625000 0.450000
vt 0.375000 0.500000
vt 0.425000 0.500000
vt 0.475000 0.500000
vt 0.525000 0.500000
vt 0.575000 0.500000
vt 0.625000 0.500000
vt 0.375000 0.750000
vt 0.425000 0.750000
vt 0.475000 0.750000
vt 0.525000 0.750000
vt 0.575000 0.750000
vt 0.625000 0.750000
vt 0.375000 0.800000
vt 0.425000 0.800000
vt 0.475000 0.800000
vt 0.525000 0.800000
vt 0.575000 0.800000
vt 0.625000 0.800000
vt 0.375000 0.850000
vt 0.425000 0.850000
vt 0.475000 0.850000
vt 0.525000 0.850000
vt 0.575000 0.850000
vt 0.625000 0.850000
vt 0.375000 0.900000
vt 0.425000 0.900000
vt 0.475000 0.900000
vt 0.525000 0.900000
vt 0.575000 0.900000
vt 0.625000 0.900000
vt 0.375000 0.950000
vt 0.425000 0.950000
vt 0.475000 0.950000
vt 0.525000 0.950000
vt 0.575000 0.950000
vt 0.625000 0.950000
vt 0.375000 1.000000
vt 0.425000 1.000000
vt 0.475000 1.000000
vt 0.525000 1.000000
vt 0.575000 1.000000
vt 0.625000 1.000000
vt 0.875000 0.000000
vt 0.825000 0.000000
vt 0.775000 0.000000
vt 0.725000 0.000000
vt 0.675000 0.000000
vt 0.875000 0.250000
vt 0.825000 0.250000
vt 0.775000 0.250000
vt 0.725000 0.250000
vt 0.675000 0.250000
vt 0.125000 0.000000
vt 0.175000 0.000000
vt 0.225000 0.000000
vt 0.275000 0.000000
vt 0.325000 0.000000
vt 0.125000 0.250000
vt 0.175000 0.250000
vt 0.225000 0.250000
vt 0.275000 0.250000
vt 0.325000 0.250000
vt 0.375000 0.000000
vt 0.425000 0.000000
vt 0.425000 0.250000
vt 0.375000 0.250000
vt 0.475000 0.000000
vt 0.475000 0.250000
vt 0.525000 0.000000
vt 0.525000 0.250000
vt 0.575000 0.000000
vt 0.575000 0.250000
vt 0.625000 0.000000
vt 0.625000 0.250000
vt 0.375000 0.000000
vt 0.425000 0.000000
vt 0.425000 0.250000
vt 0.375000 0.250000
vt 0.475000 0.000000
vt 0.475000 0.250000
vt 0.525000 0.000000
vt 0.525000 0.250000
vt 0.575000 0.000000
vt 0.575000 0.250000
vt 0.625000 0.000000
vt 0.625000 0.250000
vt 0.375000 0.000000
vt 0.425000 0.000000
vt 0.425000 0.250000
vt 0.375000 0.250000
vt 0.475000 0.000000
vt 0.475000 0.250000
vt 0.525000 0.000000
vt 0.525000 0.250000
vt 0.575000 0.000000
vt 0.575000 0.250000
vt 0.625000 0.000000
vt 0.625000 0.250000
vt 0.375000 0.000000
vt 0.425000 0.000000
vt 0.425000 0.250000
vt 0.375000 0.250000
vt 0.475000 0.000000
vt 0.475000 0.250000
vt 0.525000 0.000000
vt 0.525000 0.250000
vt 0.575000 0.000000
vt 0.575000 0.250000
vt 0.625000 0.000000
vt 0.625000 0.250000
vn -0.362963 0.874297 0.322277
vn -0.133117 0.886079 0.444010
vn -0.221903 0.896695 0.383010
vn -0.571672 0.795224 0.202014
vn -0.053615 0.865758 0.497583
vn -0.078004 0.897772 0.433498
vn 0.045568 0.867219 0.495838
vn 0.068299 0.897858 0.434955
vn 0.110156 0.890046 0.442361
vn 0.182379 0.905339 0.383535
vn 0.320985 0.890213 0.323248
vn 0.554843 0.812541 0.178682
vn -0.799726 0.600106 0.017658
vn -0.477996 0.878349 0.004773
vn -0.473820 0.878422 -0.062199
vn -0.792474 0.608151 -0.046233
vn -0.161032 0.986948 -0.001229
vn -0.160025 0.984911 -0.065894
vn 0.137845 0.990453 -0.000875
vn 0.135871 0.988534 -0.065875
vn 0.485190 0.874399 -0.004051
vn 0.494561 0.866773 -0.064141
vn 0.828017 0.560032 -0.027435
vn 0.831648 0.551897 -0.061409
vn -0.457130 0.870994 -0.180004
vn -0.759889 0.632116 -0.151653
vn -0.153443 0.970229 -0.187380
vn 0.129669 0.973608 -0.187813
vn 0.470166 0.863269 -0.183602
vn 0.815166 0.564205 -0.131062
vn -0.423086 0.870195 -0.252506
vn -0.713830 0.675852 -0.183500
vn -0.149845 0.949844 -0.274485
vn 0.126427 0.953112 -0.274943
vn 0.431932 0.862961 -0.262169
vn 0.762110 0.615878 -0.199708
vn -0.338044 0.913333 -0.227046
vn -0.649271 0.743836 -0.158606
vn -0.130105 0.954106 -0.269732
vn 0.106825 0.957196 -0.269007
vn 0.340815 0.910557 -0.233949
vn 0.751820 0.639909 -0.159008
vn -0.123423 0.938728 -0.321801
vn -0.484872 0.852172 -0.196730
vn -0.050107 0.932155 -0.358574
vn 0.033047 0.932267 -0.360258
vn 0.102189 0.937406 -0.332907
vn 0.696129 0.708365 -0.116718
vn -0.063198 0.923732 -0.377791
vn -0.228517 0.920312 -0.317498
vn -0.026312 0.912864 -0.407415
vn 0.012369 0.912095 -0.409792
vn 0.046985 0.919650 -0.389918
vn 0.467147 0.848004 -0.250325
vn 0.269975 -0.947138 0.173331
vn 0.106063 -0.972225 0.208635
vn 0.266693 -0.957766 0.107515
vn 0.356236 -0.924348 0.136661
vn -0.091553 -0.966407 0.240157
vn -0.123721 -0.980283 0.154069
vn 0.000000 -0.974787 0.223137
vn 0.000000 -0.989541 0.144252
vn -0.263802 -0.955333 0.133221
vn -0.348585 -0.929435 0.120993
vn -0.493505 -0.868867 0.039012
vn -0.531408 -0.844957 0.060435
vn 0.352454 -0.934403 0.051641
vn 0.518028 -0.853626 0.054498
vn -0.128977 -0.990834 0.040149
vn 0.000000 -0.998093 0.061726
vn -0.385111 -0.914787 0.121878
vn -0.575599 -0.808412 0.123109
vn 0.351080 -0.934185 0.063569
vn 0.470378 -0.880003 0.065871
vn -0.033682 -0.997885 0.055590
vn 0.000000 -0.997665 0.068305
vn -0.363987 -0.927243 0.087948
vn -0.524938 -0.843248 0.115642
vn 0.352320 -0.935244 0.034483
vn 0.443961 -0.895234 0.038149
vn 0.000000 -0.999430 0.033756
vn 0.000000 -0.999430 0.033755
vn -0.363907 -0.930593 0.039608
vn -0.518700 -0.853803 0.044390
vn 0.346490 -0.938000 0.010086
vn 0.439503 -0.898236 0.002870
vn 0.000000 -0.999690 0.024901
vn 0.000000 -0.999690 0.024888
vn -0.342097 -0.939417 0.021584
vn -0.484332 -0.874736 0.016135
vn 0.893951 0.448049 -0.010177
vn 0.783249 0.593067 -0.186531
vn 0.823542 0.546782 -0.151023
vn 0.862025 0.502012 -0.069983
vn 0.860249 0.509040 -0.029155
vn -0.792442 0.607394 -0.055762
vn -0.748700 0.644903 -0.153455
vn -0.814420 0.561256 -0.147348
vn -0.857521 0.510839 -0.060833
vn -0.865127 0.500677 0.029617
vn 0.358681 -0.933306 -0.016960
vn 0.457230 -0.889051 -0.022994
vn -0.798084 0.597412 0.078488
vn -0.498793 0.864294 0.064823
vn -0.841482 0.532657 0.090473
vn 0.000000 -1.000000 0.000000
vn -0.164417 0.984747 0.056916
vn 0.000000 -1.000000 0.000000
vn 0.141558 0.988280 0.057129
vn -0.333883 -0.942551 -0.010960
vn 0.475199 0.877934 0.058465
vn -0.465261 -0.884875 -0.022982
vn 0.801619 0.595648 0.051085
vn 0.817856 0.568636 0.088116
vn 0.377940 -0.925621 -0.019671
vn 0.496336 -0.867799 -0.023977
vn -0.784022 0.608643 0.121916
vn -0.517484 0.838174 0.172265
vn -0.773054 0.621926 0.124883
vn 0.000000 -1.000000 0.000000
vn -0.161712 0.971329 0.174266
vn 0.000000 -1.000000 0.000000
vn 0.141557 0.974373 0.174810
vn -0.346936 -0.937635 -0.021798
vn 0.487827 0.853598 0.182745
vn -0.507377 -0.861409 -0.023302
vn 0.770580 0.621738 0.140172
vn 0.758316 0.640904 0.119161
vn 0.303773 -0.947041 -0.104091
vn 0.346110 -0.930257 -0.121778
vn -0.738712 0.659535 0.138991
vn -0.491765 0.836252 0.242590
vn -0.763282 0.641416 0.077373
vn 0.000000 -0.983399 -0.181456
vn -0.150020 0.948358 0.279484
vn 0.000000 -0.983421 -0.181338
vn 0.136091 0.949785 0.281760
vn -0.265994 -0.957379 -0.112570
vn 0.440926 0.862943 0.246807
vn -0.339451 -0.933534 -0.115272
vn 0.731309 0.671854 0.117468
vn 0.795855 0.605394 0.010614
vn 0.162173 -0.964863 -0.206737
vn 0.266440 -0.949584 -0.165225
vn 0.000000 -0.964347 -0.264640
vn 0.000000 -0.964347 -0.264640
vn -0.137127 -0.968299 -0.208791
vn -0.259479 -0.953406 -0.153905
s 1
g pCube3
usemtl initialShadingGroup
f 109/135/1 110/136/2 111/137/3 112/138/4
f 110/136/2 113/139/5 114/140/6 111/137/3
f 113/139/5 115/141/7 116/142/8 114/140/6
f 115/141/7 117/143/9 118/144/10 116/142/8
f 117/143/9 119/145/11 120/146/12 118/144/10
f 7/7/13 8/8/14 14/14/15 13/13/16
f 8/8/14 9/9/17 15/15/18 14/14/15
f 9/9/17 10/10/19 16/16/20 15/15/18
f 10/10/19 11/11/21 17/17/22 16/16/20
f 11/11/21 12/12/23 18/18/24 17/17/22
f 13/13/16 14/14/15 20/20/25 19/19/26
f 14/14/15 15/15/18 21/21/27 20/20/25
f 15/15/18 16/16/20 22/22/28 21/21/27
f 16/16/20 17/17/22 23/23/29 22/22/28
f 17/17/22 18/18/24 24/24/30 23/23/29
f 19/19/26 20/20/25 26/26/31 25/25/32
f 20/20/25 21/21/27 27/27/33 26/26/31
f 21/21/27 22/22/28 28/28/34 27/27/33
f 22/22/28 23/23/29 29/29/35 28/28/34
f 23/23/29 24/24/30 30/30/36 29/29/35
f 25/25/32 26/26/31 32/32/37 31/31/38
f 26/26/31 27/27/33 33/33/39 32/32/37
f 27/27/33 28/28/34 34/34/40 33/33/39
f 28/28/34 29/29/35 35/35/41 34/34/40
f 29/29/35 30/30/36 36/36/42 35/35/41
f 31/31/38 32/32/37 38/38/43 37/37/44
f 32/32/37 33/33/39 39/39/45 38/38/43
f 33/33/39 34/34/40 40/40/46 39/39/45
f 34/34/40 35/35/41 41/41/47 40/40/46
f 35/35/41 36/36/42 42/42/48 41/41/47
f 37/37/44 38/38/43 44/44/49 43/43/50
f 38/38/43 39/39/45 45/45/51 44/44/49
f 39/39/45 40/40/46 46/46/52 45/45/51
f 40/40/46 41/41/47 47/47/53 46/46/52
f 41/41/47 42/42/48 48/48/54 47/47/53
s 3
f 43/43/55 44/44/56 50/50/57 49/49/58
f 44/44/56 45/45/59 51/51/60 50/50/57
f 45/45/59 46/46/61 52/52/62 51/51/60
f 46/46/61 47/47/63 53/53/64 52/52/62
f 47/47/63 48/48/65 54/54/66 53/53/64
f 49/49/58 50/50/57 56/56/67 55/55/68
f 50/50/57 51/51/60 57/57/69 56/56/67
f 51/51/60 52/52/62 58/58/70 57/57/69
f 52/52/62 53/53/64 59/59/71 58/58/70
f 53/53/64 54/54/66 60/60/72 59/59/71
f 55/55/68 56/56/67 62/62/73 61/61/74
f 56/56/67 57/57/69 63/63/75 62/62/73
f 57/57/69 58/58/70 64/64/76 63/63/75
f 58/58/70 59/59/71 65/65/77 64/64/76
f 59/59/71 60/60/72 66/66/78 65/65/77
f 61/61/74 62/62/73 68/68/79 67/67/80
f 62/62/73 63/63/75 69/69/81 68/68/79
f 63/63/75 64/64/76 70/70/82 69/69/81
f 64/64/76 65/65/77 71/71/83 70/70/82
f 65/65/77 66/66/78 72/72/84 71/71/83
f 67/67/80 68/68/79 2/74/85 1/73/86
f 68/68/79 69/69/81 3/75/87 2/74/85
f 69/69/81 70/70/82 4/76/88 3/75/87
f 70/70/82 71/71/83 5/77/89 4/76/88
f 71/71/83 72/72/84 6/78/90 5/77/89
s 1
f 54/80/91 48/79/54 42/84/48 36/85/42
f 60/81/92 54/80/91 36/85/42 30/86/36
f 66/82/93 60/81/92 30/86/36 24/87/30
f 72/83/94 66/82/93 24/87/30 18/88/24
f 6/6/95 72/83/94 18/88/24 12/12/23
f 43/89/50 49/90/96 31/95/38 37/94/44
f 49/90/96 55/91/97 25/96/32 31/95/38
f 55/91/97 61/92/98 19/97/26 25/96/32
f 61/92/98 67/93/99 13/98/16 19/97/26
f 67/93/99 1/1/100 7/7/13 13/98/16
s 3
f 1/1/86 2/2/85 74/100/101 73/99/102
s 1
f 8/8/14 7/7/13 76/102/103 75/101/104
f 7/7/13 1/1/100 73/99/105 76/102/103
s 3
f 2/2/85 3/3/87 77/103/106 74/100/101
s 1
f 9/9/17 8/8/14 75/101/104 78/104/107
s 3
f 3/3/87 4/4/88 79/105/108 77/103/106
s 1
f 10/10/19 9/9/17 78/104/107 80/106/109
s 3
f 4/4/88 5/5/89 81/107/110 79/105/108
s 1
f 11/11/21 10/10/19 80/106/109 82/108/111
s 3
f 5/5/89 6/6/90 83/109/112 81/107/110
s 1
f 6/6/95 12/12/23 84/110/113 83/109/114
f 12/12/23 11/11/21 82/108/111 84/110/113
s 3
f 73/99/102 74/100/101 86/112/115 85/111/116
s 1
f 75/101/104 76/102/103 88/114/117 87/113/118
f 76/102/103 73/99/105 85/111/119 88/114/117
s 3
f 74/100/101 77/103/106 89/115/120 86/112/115
s 1
f 78/104/107 75/101/104 87/113/118 90/116/121
s 3
f 77/103/106 79/105/108 91/117/122 89/115/120
s 1
f 80/106/109 78/104/107 90/116/121 92/118/123
s 3
f 79/105/108 81/107/110 93/119/124 91/117/122
s 1
f 82/108/111 80/106/109 92/118/123 94/120/125
s 3
f 81/107/110 83/109/112 95/121/126 93/119/124
s 1
f 83/109/114 84/110/113 96/122/127 95/121/128
f 84/110/113 82/108/111 94/120/125 96/122/127
s 3
f 85/111/116 86/112/115 98/124/129 97/123/130
s 1
f 87/113/118 88/114/117 100/126/131 99/125/132
f 88/114/117 85/111/119 97/123/133 100/126/131
s 3
f 86/112/115 89/115/120 101/127/134 98/124/129
s 1
f 90/116/121 87/113/118 99/125/132 102/128/135
s 3
f 89/115/120 91/117/122 103/129/136 101/127/134
s 1
f 92/118/123 90/116/121 102/128/135 104/130/137
s 3
f 91/117/122 93/119/124 105/131/138 103/129/136
s 1
f 94/120/125 92/118/123 104/130/137 106/132/139
s 3
f 93/119/124 95/121/126 107/133/140 105/131/138
s 1
f 95/121/128 96/122/127 108/134/141 107/133/142
f 96/122/127 94/120/125 106/132/139 108/134/141
s 3
f 97/123/130 98/124/129 110/136/143 109/135/144
s 1
f 99/125/132 100/126/131 112/138/4 111/137/3
f 100/126/131 97/123/133 109/135/1 112/138/4
s 3
f 98/124/129 101/127/134 113/139/145 110/136/143
s 1
f 102/128/135 99/125/132 111/137/3 114/140/6
s 3
f 101/127/134 103/129/136 115/141/146 113/139/145
s 1
f 104/130/137 102/128/135 114/140/6 116/142/8
s 3
f 103/129/136 105/131/138 117/143/147 115/141/146
s 1
f 106/132/139 104/130/137 116/142/8 118/144/10
s 3
f 105/131/138 107/133/140 119/145/148 117/143/147
s 1
f 107/133/142 108/134/141 120/146/12 119/145/11
f 108/134/141 106/132/139 118/144/10 120/146/12
