# This file uses centimeters as units for non-parametric coordinates.

mtllib SnowBump_Right.mtl
g default
v 82.498360 3.771469 73.271324
v 78.202332 3.710373 73.072403
v 75.864899 3.677131 72.964165
v 73.385422 3.641869 72.849358
v 70.013489 3.593915 72.693222
v 65.213760 3.525655 72.470978
v 79.867462 8.377607 82.372993
v 77.916901 10.888420 82.282669
v 75.413124 11.697311 82.166740
v 73.766121 11.673888 82.090477
v 70.599136 10.784349 81.943832
v 68.387154 8.135582 81.841408
v 80.264336 8.360845 93.059265
v 77.408112 10.869078 92.927017
v 75.061523 11.665012 92.818359
v 73.134727 11.637609 92.729141
v 70.007759 10.763833 92.584351
v 68.290634 8.098417 92.504837
v 79.397034 8.370237 100.993401
v 76.773346 10.674282 100.871918
v 74.617798 11.405418 100.772102
v 72.847862 11.380247 100.690147
v 69.975456 10.577605 100.557144
v 68.146217 8.125598 100.472443
v 78.709099 8.377607 107.389656
v 76.270584 10.313313 107.276741
v 74.264740 10.993670 107.183868
v 72.617737 10.970246 107.107605
v 69.944839 10.223351 106.983833
v 68.239693 8.149959 106.904884
v 78.210732 7.902296 115.705040
v 75.780067 9.285481 115.592491
v 73.774231 9.965839 115.499611
v 72.127213 9.942416 115.423347
v 69.454315 9.195519 115.299583
v 67.998138 8.149959 112.121635
v 78.129761 7.185683 120.267342
v 75.002434 7.614622 134.558014
v 73.002472 7.880981 134.465408
v 71.355461 7.857558 134.389145
v 69.117905 7.665004 134.285538
v 67.768692 7.296294 117.338943
v 79.941963 2.750138 123.221512
v 75.788742 3.366299 156.430435
v 72.627457 3.529483 156.284058
v 69.274063 3.702583 156.128784
v 64.713661 3.937989 155.917618
v 64.422211 3.547298 122.502884
v 80.525391 3.771469 115.880562
v 76.312897 5.807767 115.572632
v 74.248711 5.778411 115.477051
v 72.059090 5.747271 115.375664
v 69.081329 5.704923 115.237785
v 64.762650 3.547298 115.150688
v 80.865822 3.771469 108.528374
v 76.613533 5.807767 109.079895
v 74.549347 5.778411 108.984314
v 72.359726 5.747271 108.882927
v 69.381966 5.704923 108.745049
v 65.103081 3.547298 107.798500
v 81.875923 3.550465 99.515755
v 77.222389 5.608569 101.107727
v 75.004135 5.577023 101.005020
v 72.651077 5.543558 100.896057
v 69.451065 5.498049 100.747894
v 64.936676 3.309562 98.731407
v 83.149986 3.268453 88.336227
v 77.986176 5.354387 91.218353
v 75.571335 5.320044 91.106537
v 73.009735 5.283614 90.987923
v 69.526115 5.234072 90.826622
v 65.122330 3.012072 87.501480
v 71.703125 8.449839 123.506363
v 73.350128 8.473261 123.582626
v 75.352989 8.002845 123.675369
v 78.096817 7.297863 118.350891
v 80.352753 3.771469 119.608932
v 76.006584 5.195539 133.815948
v 73.682449 5.712290 133.708328
v 71.101463 5.774461 133.588821
v 67.591476 5.859009 133.426300
v 64.590012 3.547298 118.879059
v 67.881783 7.717060 114.767365
v 69.250992 7.984052 123.392822
v 73.552849 5.931951 143.591187
v 76.955681 5.590029 143.748749
v 81.600677 5.806206 120.311577
v 81.671555 6.275304 118.661293
v 81.559990 5.952127 117.504433
v 82.137314 6.757926 108.479515
v 83.121910 6.577007 101.235672
v 84.366325 6.346156 92.250481
v 83.450897 6.757926 80.110756
v 79.519737 8.714356 75.931015
v 76.324539 9.333907 75.783066
v 73.603676 9.287277 75.657074
v 69.289139 8.539024 75.457291
v 64.484306 6.369992 79.232529
v 64.584457 5.933562 91.334503
v 64.534340 6.190875 100.374992
v 64.840736 6.398613 107.678612
v 64.566811 6.398613 113.594383
v 64.431976 6.052955 116.594490
v 64.300919 5.716984 119.510521
v 65.777855 6.083034 143.231171
v 70.257637 6.050344 143.438599
vt 0.375000 0.000000
vt 0.425000 0.000000
vt 0.475000 0.000000
vt 0.525000 0.000000
vt 0.575000 0.000000
vt 0.625000 0.000000
vt 0.375000 0.250000
vt 0.425000 0.250000
vt 0.475000 0.250000
vt 0.525000 0.250000
vt 0.575000 0.250000
vt 0.625000 0.250000
vt 0.375000 0.300000
vt 0.425000 0.300000
vt 0.475000 0.300000
vt 0.525000 0.300000
vt 0.575000 0.300000
vt 0.625000 0.300000
vt 0.375000 0.350000
vt 0.425000 0.350000
vt 0.475000 0.350000
vt 0.525000 0.350000
vt 0.575000 0.350000
vt 0.625000 0.350000
vt 0.375000 0.400000
vt 0.425000 0.400000
vt 0.475000 0.400000
vt 0.525000 0.400000
vt 0.575000 0.400000
vt 0.625000 0.400000
vt 0.375000 0.450000
vt 0.425000 0.450000
vt 0.475000 0.450000
vt 0.525000 0.450000
vt 0.575000 0.450000
vt 0.625000 0.450000
vt 0.375000 0.500000
vt 0.425000 0.500000
vt 0.475000 0.500000
vt 0.525000 0.500000
vt 0.575000 0.500000
vt 0.625000 0.500000
vt 0.375000 0.750000
vt 0.425000 0.750000
vt 0.475000 0.750000
vt 0.525000 0.750000
vt 0.575000 0.750000
vt 0.625000 0.750000
vt 0.375000 0.800000
vt 0.425000 0.800000
vt 0.475000 0.800000
vt 0.525000 0.800000
vt 0.575000 0.800000
vt 0.625000 0.800000
vt 0.375000 0.850000
vt 0.425000 0.850000
vt 0.475000 0.850000
vt 0.525000 0.850000
vt 0.575000 0.850000
vt 0.625000 0.850000
vt 0.375000 0.900000
vt 0.425000 0.900000
vt 0.475000 0.900000
vt 0.525000 0.900000
vt 0.575000 0.900000
vt 0.625000 0.900000
vt 0.375000 0.950000
vt 0.425000 0.950000
vt 0.475000 0.950000
vt 0.525000 0.950000
vt 0.575000 0.950000
vt 0.625000 0.950000
vt 0.375000 1.000000
vt 0.425000 1.000000
vt 0.475000 1.000000
vt 0.525000 1.000000
vt 0.575000 1.000000
vt 0.625000 1.000000
vt 0.875000 0.000000
vt 0.825000 0.000000
vt 0.775000 0.000000
vt 0.725000 0.000000
vt 0.675000 0.000000
vt 0.875000 0.250000
vt 0.825000 0.250000
vt 0.775000 0.250000
vt 0.725000 0.250000
vt 0.675000 0.250000
vt 0.125000 0.000000
vt 0.175000 0.000000
vt 0.225000 0.000000
vt 0.275000 0.000000
vt 0.325000 0.000000
vt 0.125000 0.250000
vt 0.175000 0.250000
vt 0.225000 0.250000
vt 0.275000 0.250000
vt 0.325000 0.250000
vt 0.525000 0.475355
vt 0.475000 0.475355
vt 0.425000 0.475355
vt 0.149645 0.250000
vt 0.375000 0.475355
vt 0.149645 0.000000
vt 0.375000 0.774645
vt 0.425000 0.774645
vt 0.475000 0.774645
vt 0.525000 0.774645
vt 0.575000 0.774645
vt 0.625000 0.774645
vt 0.850355 0.000000
vt 0.625000 0.475355
vt 0.850355 0.250000
vt 0.575000 0.475355
vt 0.475000 0.632252
vt 0.425000 0.632252
vt 0.125000 0.117748
vt 0.375000 0.632252
vt 0.149645 0.117748
vt 0.175000 0.117748
vt 0.225000 0.117748
vt 0.275000 0.117748
vt 0.325000 0.117748
vt 0.375000 0.117748
vt 0.425000 0.117748
vt 0.475000 0.117748
vt 0.525000 0.117748
vt 0.575000 0.117748
vt 0.625000 0.117748
vt 0.675000 0.117748
vt 0.725000 0.117748
vt 0.775000 0.117748
vt 0.825000 0.117748
vt 0.850355 0.117748
vt 0.625000 0.632252
vt 0.875000 0.117748
vt 0.575000 0.632252
vt 0.525000 0.632252
vn 0.931749 0.337854 -0.133035
vn 0.412624 0.750864 -0.515699
vn 0.508234 0.859304 -0.057397
vn 0.558617 0.829426 0.000262
vn 0.118021 0.767903 -0.629600
vn 0.161039 0.978600 -0.128094
vn -0.065741 0.767572 -0.637583
vn -0.153677 0.977571 -0.144008
vn -0.320372 0.777978 -0.540474
vn -0.479199 0.871790 -0.101740
vn -0.917102 0.380269 -0.119662
vn -0.590719 0.806855 -0.005964
vn 0.552376 0.832955 0.032649
vn 0.549032 0.835446 0.024349
vn 0.179441 0.983490 0.023418
vn -0.179620 0.983715 0.006376
vn -0.575651 0.817659 -0.007762
vn -0.633129 0.774011 -0.007407
vn 0.525687 0.847740 0.070641
vn 0.532787 0.844368 0.056396
vn 0.173955 0.983221 0.054920
vn -0.176951 0.983461 0.038629
vn -0.568394 0.822475 0.021512
vn -0.625881 0.779904 -0.004686
vn 0.484164 0.868971 0.102348
vn 0.504714 0.859683 0.078797
vn 0.171004 0.979689 0.104722
vn -0.177470 0.980339 0.086251
vn -0.505078 0.861330 0.054837
vn -0.595622 0.803262 0.002303
vn 0.427793 0.892242 0.144562
vn 0.480514 0.869888 0.111363
vn 0.154142 0.975846 0.154806
vn -0.167191 0.976520 0.135851
vn -0.430976 0.895744 0.109101
vn -0.581613 0.813301 0.016367
vn 0.285209 0.954694 0.084945
vn 0.442236 0.886277 0.137624
vn 0.112349 0.987758 0.108222
vn -0.119533 0.987971 0.098104
vn -0.321222 0.944113 0.073948
vn -0.557368 0.824633 0.096550
vn 0.395023 0.915464 0.076703
vn 0.345710 0.933230 0.097810
vn 0.893510 0.399949 0.204156
vn 0.792907 0.597459 0.119753
vn 0.071826 0.988530 0.132853
vn 0.054306 0.980144 0.190703
vn -0.047678 0.991086 0.124402
vn 0.012174 0.983034 0.183017
vn -0.309660 0.949751 0.045648
vn -0.665405 0.740393 0.095157
vn -0.433615 0.900539 0.031762
vn -0.603598 0.797157 0.014493
vn -0.470365 -0.881350 -0.044486
vn -0.449837 -0.889266 -0.082785
vn -0.291736 -0.956203 -0.023813
vn -0.426742 -0.903912 -0.028902
vn -0.067749 -0.995818 -0.061288
vn -0.038219 -0.999238 -0.007925
vn -0.023928 -0.998137 -0.056125
vn -0.001472 -0.999998 0.001692
vn 0.262542 -0.964549 -0.026763
vn 0.239094 -0.970808 0.019158
vn 0.474070 -0.879713 0.036915
vn 0.454561 -0.890095 0.033254
vn -0.300956 -0.953597 -0.008871
vn -0.426092 -0.904488 -0.018628
vn 0.013531 -0.999798 0.014850
vn 0.013531 -0.999798 0.014843
vn 0.285991 -0.958043 0.019040
vn 0.440886 -0.897322 0.020832
vn -0.285888 -0.958257 -0.003380
vn -0.402726 -0.915186 -0.015678
vn 0.012994 -0.999567 0.026385
vn 0.012994 -0.999568 0.026384
vn 0.276492 -0.960669 0.025839
vn 0.431656 -0.901646 0.026589
vn -0.205740 -0.978203 0.028115
vn -0.248543 -0.968330 0.023757
vn 0.011025 -0.997604 0.068295
vn 0.011027 -0.997607 0.068248
vn 0.203246 -0.977883 0.049348
vn 0.275989 -0.960510 0.035356
vn -0.124608 -0.990622 0.056044
vn -0.199323 -0.979263 0.036257
vn 0.009979 -0.995861 0.090343
vn 0.009979 -0.995861 0.090343
vn 0.133838 -0.989147 0.060620
vn 0.227852 -0.972991 0.037029
vn -0.878658 0.477410 -0.006284
vn -0.821016 0.569017 0.046397
vn -0.857917 0.513716 -0.008616
vn -0.856728 0.515767 0.001058
vn -0.849996 0.526789 -0.000068
vn 0.872857 0.478351 0.096440
vn 0.890075 0.446870 0.089855
vn 0.883719 0.455944 0.105622
vn 0.921509 0.371856 0.112003
vn 0.913077 0.404267 0.053463
vn -0.695744 -0.712103 -0.094073
vn -0.177363 -0.979733 -0.093086
vn -0.075339 -0.992741 -0.093748
vn -0.035111 -0.994988 -0.093630
vn 0.013264 -0.996259 -0.085397
vn 0.574066 -0.818781 0.006720
vn 0.050414 0.981377 0.185359
vn 0.275321 0.937694 0.211963
vn 0.985275 -0.083459 0.149225
vn 0.872175 -0.488378 -0.028250
vn 0.907244 -0.419408 0.031714
vn 0.907041 -0.413798 0.077768
vn 0.884943 -0.449631 0.121279
vn 0.959813 -0.279082 -0.029536
vn 0.724169 0.433254 -0.536535
vn 0.308062 0.563395 -0.766605
vn 0.060555 0.449995 -0.890976
vn 0.009221 0.456940 -0.889450
vn -0.223467 0.605156 -0.764100
vn -0.651487 0.531447 -0.541414
vn -0.980700 -0.195399 -0.006863
vn -0.989450 -0.144826 0.003851
vn -0.993937 -0.109892 -0.003599
vn -0.994075 -0.097425 -0.048201
vn -0.992328 -0.112567 -0.051130
vn -0.956524 0.290701 0.023547
vn -0.116697 0.978363 0.170844
vn 0.026631 0.983253 0.180292
s 1
g pCube21
usemtl initialShadingGroup
f 93/124/1 94/125/2 8/8/3 7/7/4
f 94/125/2 95/126/5 9/9/6 8/8/3
f 95/126/5 96/127/7 10/10/8 9/9/6
f 96/127/7 97/128/9 11/11/10 10/10/8
f 97/128/9 98/129/11 12/12/12 11/11/10
f 7/7/4 8/8/3 14/14/13 13/13/14
f 8/8/3 9/9/6 15/15/15 14/14/13
f 9/9/6 10/10/8 16/16/16 15/15/15
f 10/10/8 11/11/10 17/17/17 16/16/16
f 11/11/10 12/12/12 18/18/18 17/17/17
f 13/13/14 14/14/13 20/20/19 19/19/20
f 14/14/13 15/15/15 21/21/21 20/20/19
f 15/15/15 16/16/16 22/22/22 21/21/21
f 16/16/16 17/17/17 23/23/23 22/22/22
f 17/17/17 18/18/18 24/24/24 23/23/23
f 19/19/20 20/20/19 26/26/25 25/25/26
f 20/20/19 21/21/21 27/27/27 26/26/25
f 21/21/21 22/22/22 28/28/28 27/27/27
f 22/22/22 23/23/23 29/29/29 28/28/28
f 23/23/23 24/24/24 30/30/30 29/29/29
f 25/25/26 26/26/25 32/32/31 31/31/32
f 26/26/25 27/27/27 33/33/33 32/32/31
f 27/27/27 28/28/28 34/34/34 33/33/33
f 28/28/28 29/29/29 35/35/35 34/34/34
f 29/29/29 30/30/30 36/36/36 35/35/35
f 31/31/32 32/32/31 75/101/37 76/103/38
f 32/32/31 33/33/33 74/100/39 75/101/37
f 33/33/33 34/34/34 73/99/40 74/100/39
f 34/34/34 35/35/35 84/114/41 73/99/40
f 35/35/35 36/36/36 83/112/42 84/114/41
f 37/37/43 38/38/44 86/116/45 87/118/46
f 38/38/44 39/39/47 85/115/48 86/116/45
f 39/39/47 40/40/49 106/138/50 85/115/48
f 40/40/49 41/41/51 105/137/52 106/138/50
f 41/41/51 42/42/53 104/135/54 105/137/52
s 2
f 77/105/55 78/106/56 50/50/57 49/49/58
f 78/106/56 79/107/59 51/51/60 50/50/57
f 79/107/59 80/108/61 52/52/62 51/51/60
f 80/108/61 81/109/63 53/53/64 52/52/62
f 81/109/63 82/110/65 54/54/66 53/53/64
f 49/49/58 50/50/57 56/56/67 55/55/68
f 50/50/57 51/51/60 57/57/69 56/56/67
f 51/51/60 52/52/62 58/58/70 57/57/69
f 52/52/62 53/53/64 59/59/71 58/58/70
f 53/53/64 54/54/66 60/60/72 59/59/71
f 55/55/68 56/56/67 62/62/73 61/61/74
f 56/56/67 57/57/69 63/63/75 62/62/73
f 57/57/69 58/58/70 64/64/76 63/63/75
f 58/58/70 59/59/71 65/65/77 64/64/76
f 59/59/71 60/60/72 66/66/78 65/65/77
f 61/61/74 62/62/73 68/68/79 67/67/80
f 62/62/73 63/63/75 69/69/81 68/68/79
f 63/63/75 64/64/76 70/70/82 69/69/81
f 64/64/76 65/65/77 71/71/83 70/70/82
f 65/65/77 66/66/78 72/72/84 71/71/83
f 67/67/80 68/68/79 2/74/85 1/73/86
f 68/68/79 69/69/81 3/75/87 2/74/85
f 69/69/81 70/70/82 4/76/88 3/75/87
f 70/70/82 71/71/83 5/77/89 4/76/88
f 71/71/83 72/72/84 6/78/90 5/77/89
s 1
f 102/133/91 103/134/92 83/113/42 36/85/36
f 101/132/93 102/133/91 36/85/36 30/86/30
f 100/131/94 101/132/93 30/86/30 24/87/24
f 99/130/95 100/131/94 24/87/24 18/88/18
f 98/129/11 99/130/95 18/88/18 12/12/12
f 88/119/96 89/120/97 31/95/32 76/102/38
f 89/120/97 90/121/98 25/96/26 31/95/32
f 90/121/98 91/122/99 19/97/20 25/96/26
f 91/122/99 92/123/100 13/98/14 19/97/20
f 92/123/100 93/124/1 7/7/4 13/98/14
f 74/100/39 73/99/40 40/40/49 39/39/47
f 75/101/37 74/100/39 39/39/47 38/38/44
f 76/103/38 75/101/37 38/38/44 37/37/43
f 87/117/46 88/119/96 76/102/38 37/94/43
s 2
f 43/43/101 44/44/102 78/106/56 77/105/55
f 44/44/102 45/45/103 79/107/59 78/106/56
f 45/45/103 46/46/104 80/108/61 79/107/59
f 46/46/104 47/47/105 81/109/63 80/108/61
f 47/47/105 48/48/106 82/110/65 81/109/63
s 1
f 83/113/42 103/134/92 104/136/54 42/84/53
f 84/114/41 83/112/42 42/42/53 41/41/51
f 73/99/40 84/114/41 41/41/51 40/40/49
f 86/116/45 85/115/48 45/45/107 44/44/108
f 87/118/46 86/116/45 44/44/108 43/43/109
f 43/89/109 77/104/110 88/119/96 87/117/46
f 77/104/110 49/90/111 89/120/97 88/119/96
f 49/90/111 55/91/112 90/121/98 89/120/97
f 55/91/112 61/92/113 91/122/99 90/121/98
f 61/92/113 67/93/114 92/123/100 91/122/99
f 67/93/114 1/1/115 93/124/1 92/123/100
f 1/1/115 2/2/116 94/125/2 93/124/1
f 2/2/116 3/3/117 95/126/5 94/125/2
f 3/3/117 4/4/118 96/127/7 95/126/5
f 4/4/118 5/5/119 97/128/9 96/127/7
f 5/5/119 6/6/120 98/129/11 97/128/9
f 6/6/120 72/83/121 99/130/95 98/129/11
f 72/83/121 66/82/122 100/131/94 99/130/95
f 66/82/122 60/81/123 101/132/93 100/131/94
f 60/81/123 54/80/124 102/133/91 101/132/93
f 54/80/124 82/111/125 103/134/92 102/133/91
f 104/136/54 103/134/92 82/111/125 48/79/126
f 105/137/52 104/135/54 48/48/126 47/47/127
f 106/138/50 105/137/52 47/47/127 46/46/128
f 85/115/48 106/138/50 46/46/128 45/45/107
