# This file uses centimeters as units for non-parametric coordinates.

mtllib SnowBump_Right.mtl
g default
v 10.164743 -1.452256 -41.179382
v 5.868714 -1.513352 -41.378304
v 3.531279 -1.546594 -41.486534
v 1.051804 -1.581856 -41.601341
v -2.320133 -1.629810 -41.757484
v -7.119855 -1.698070 -41.979729
v 7.533844 3.153882 -32.077713
v 5.583286 5.664695 -32.168034
v 3.079509 6.473587 -32.283966
v 1.432503 6.450163 -32.360229
v -1.734482 5.560625 -32.506874
v -3.946464 2.911858 -32.609299
v 7.930716 3.137120 -21.391438
v 5.074497 5.645352 -21.523693
v 2.727908 6.441288 -21.632351
v 0.801111 6.413885 -21.721569
v -2.325862 5.540108 -21.866360
v -4.042982 2.874692 -21.945873
v 7.063415 3.146513 -13.457305
v 4.439727 5.450557 -13.578788
v 2.284176 6.181694 -13.678603
v 0.514242 6.156523 -13.760558
v -2.358162 5.353880 -13.893561
v -4.187402 2.901873 -13.978263
v 6.375481 3.153882 -7.061054
v 3.936969 5.089588 -7.173969
v 1.931125 5.769945 -7.266842
v 0.284119 5.746521 -7.343105
v -2.388778 4.999626 -7.466877
v -4.093929 2.926234 -7.545826
v 5.877116 2.678571 1.254331
v 3.446448 4.061757 1.141782
v 1.440611 4.742114 1.048902
v -0.206402 4.718691 0.972638
v -2.879299 3.971795 0.848874
v -4.335483 2.926234 -2.329074
v 5.796143 1.961959 5.816635
v 2.668818 2.390897 20.107307
v 0.668855 2.657257 20.014702
v -0.978158 2.633834 19.938438
v -3.215710 2.441279 19.834831
v -4.564926 2.072569 2.888241
v 7.608344 -2.473587 8.770805
v 3.455125 -1.857426 41.979729
v 0.293840 -1.694242 41.833351
v -3.059552 -1.521142 41.678078
v -7.619959 -1.285736 41.466911
v -7.911408 -1.676426 8.052177
v 8.191774 -1.452256 1.429853
v 3.979282 0.584042 1.121924
v 1.915095 0.554686 1.026343
v -0.274529 0.523546 0.924956
v -3.252287 0.481198 0.787078
v -7.570970 -1.676426 0.699980
v 8.532206 -1.452256 -5.922333
v 4.279918 0.584042 -5.370810
v 2.215731 0.554686 -5.466391
v 0.026108 0.523546 -5.567778
v -2.951650 0.481198 -5.705657
v -7.230535 -1.676426 -6.652206
v 9.542308 -1.673260 -14.934954
v 4.888771 0.384844 -13.342976
v 2.670515 0.353297 -13.445690
v 0.317463 0.319833 -13.554646
v -2.882550 0.274324 -13.702816
v -7.396938 -1.914163 -15.719301
v 10.816368 -1.955272 -26.114475
v 5.652560 0.130662 -23.232355
v 3.237715 0.096319 -23.344172
v 0.676120 0.059889 -23.462786
v -2.807501 0.010347 -23.624086
v -7.211288 -2.211653 -26.949230
v -0.630495 3.226113 9.055653
v 1.016511 3.249536 9.131916
v 3.019372 2.779120 9.224659
v 5.763202 2.074138 3.900181
v 8.019136 -1.452256 5.158229
v 3.672966 -0.028185 19.365242
v 1.348829 0.488565 19.257622
v -1.232155 0.550736 19.138115
v -4.742140 0.635284 18.975594
v -7.743608 -1.676426 4.428355
v -4.451835 2.493335 0.316662
v -3.082628 2.760327 8.942112
v 1.219234 0.708226 29.140488
v 4.622064 0.366304 29.298050
v 9.267056 0.582481 5.860868
v 9.337935 1.051579 4.210586
v 9.226374 0.728403 3.053727
v 9.803696 1.534201 -5.971194
v 10.788290 1.353282 -13.215034
v 12.032706 1.122431 -22.200226
v 11.117279 1.534201 -34.339951
v 7.186116 3.490632 -38.519691
v 3.990919 4.110183 -38.667641
v 1.270058 4.063552 -38.793633
v -3.044476 3.315300 -38.993416
v -7.849314 1.146267 -35.218178
v -7.749159 0.709837 -23.116203
v -7.799277 0.967150 -14.075713
v -7.492882 1.174889 -6.772098
v -7.766808 1.174889 -0.856325
v -7.901645 0.829230 2.143786
v -8.032701 0.493259 5.059812
v -6.555765 0.859309 28.780472
v -2.075978 0.826619 28.987900
vt 0.375000 0.000000
vt 0.425000 0.000000
vt 0.475000 0.000000
vt 0.525000 0.000000
vt 0.575000 0.000000
vt 0.625000 0.000000
vt 0.375000 0.250000
vt 0.425000 0.250000
vt 0.475000 0.250000
vt 0.525000 0.250000
vt 0.575000 0.250000
vt 0.625000 0.250000
vt 0.375000 0.300000
vt 0.425000 0.300000
vt 0.475000 0.300000
vt 0.525000 0.300000
vt 0.575000 0.300000
vt 0.625000 0.300000
vt 0.375000 0.350000
vt 0.425000 0.350000
vt 0.475000 0.350000
vt 0.525000 0.350000
vt 0.575000 0.350000
vt 0.625000 0.350000
vt 0.375000 0.400000
vt 0.425000 0.400000
vt 0.475000 0.400000
vt 0.525000 0.400000
vt 0.575000 0.400000
vt 0.625000 0.400000
vt 0.375000 0.450000
vt 0.425000 0.450000
vt 0.475000 0.450000
vt 0.525000 0.450000
vt 0.575000 0.450000
vt 0.625000 0.450000
vt 0.375000 0.500000
vt 0.425000 0.500000
vt 0.475000 0.500000
vt 0.525000 0.500000
vt 0.575000 0.500000
vt 0.625000 0.500000
vt 0.375000 0.750000
vt 0.425000 0.750000
vt 0.475000 0.750000
vt 0.525000 0.750000
vt 0.575000 0.750000
vt 0.625000 0.750000
vt 0.375000 0.800000
vt 0.425000 0.800000
vt 0.475000 0.800000
vt 0.525000 0.800000
vt 0.575000 0.800000
vt 0.625000 0.800000
vt 0.375000 0.850000
vt 0.425000 0.850000
vt 0.475000 0.850000
vt 0.525000 0.850000
vt 0.575000 0.850000
vt 0.625000 0.850000
vt 0.375000 0.900000
vt 0.425000 0.900000
vt 0.475000 0.900000
vt 0.525000 0.900000
vt 0.575000 0.900000
vt 0.625000 0.900000
vt 0.375000 0.950000
vt 0.425000 0.950000
vt 0.475000 0.950000
vt 0.525000 0.950000
vt 0.575000 0.950000
vt 0.625000 0.950000
vt 0.375000 1.000000
vt 0.425000 1.000000
vt 0.475000 1.000000
vt 0.525000 1.000000
vt 0.575000 1.000000
vt 0.625000 1.000000
vt 0.875000 0.000000
vt 0.825000 0.000000
vt 0.775000 0.000000
vt 0.725000 0.000000
vt 0.675000 0.000000
vt 0.875000 0.250000
vt 0.825000 0.250000
vt 0.775000 0.250000
vt 0.725000 0.250000
vt 0.675000 0.250000
vt 0.125000 0.000000
vt 0.175000 0.000000
vt 0.225000 0.000000
vt 0.275000 0.000000
vt 0.325000 0.000000
vt 0.125000 0.250000
vt 0.175000 0.250000
vt 0.225000 0.250000
vt 0.275000 0.250000
vt 0.325000 0.250000
vt 0.525000 0.475355
vt 0.475000 0.475355
vt 0.425000 0.475355
vt 0.149645 0.250000
vt 0.375000 0.475355
vt 0.149645 0.000000
vt 0.375000 0.774645
vt 0.425000 0.774645
vt 0.475000 0.774645
vt 0.525000 0.774645
vt 0.575000 0.774645
vt 0.625000 0.774645
vt 0.850355 0.000000
vt 0.625000 0.475355
vt 0.850355 0.250000
vt 0.575000 0.475355
vt 0.475000 0.632252
vt 0.425000 0.632252
vt 0.125000 0.117748
vt 0.375000 0.632252
vt 0.149645 0.117748
vt 0.175000 0.117748
vt 0.225000 0.117748
vt 0.275000 0.117748
vt 0.325000 0.117748
vt 0.375000 0.117748
vt 0.425000 0.117748
vt 0.475000 0.117748
vt 0.525000 0.117748
vt 0.575000 0.117748
vt 0.625000 0.117748
vt 0.675000 0.117748
vt 0.725000 0.117748
vt 0.775000 0.117748
vt 0.825000 0.117748
vt 0.850355 0.117748
vt 0.625000 0.632252
vt 0.875000 0.117748
vt 0.575000 0.632252
vt 0.525000 0.632252
vn 0.931749 0.337854 -0.133035
vn 0.412623 0.750864 -0.515699
vn 0.508235 0.859304 -0.057397
vn 0.558617 0.829426 0.000262
vn 0.118022 0.767903 -0.629600
vn 0.161039 0.978600 -0.128094
vn -0.065740 0.767572 -0.637583
vn -0.153676 0.977571 -0.144008
vn -0.320371 0.777978 -0.540475
vn -0.479199 0.871790 -0.101740
vn -0.917102 0.380269 -0.119662
vn -0.590720 0.806855 -0.005964
vn 0.552377 0.832955 0.032650
vn 0.549033 0.835446 0.024349
vn 0.179441 0.983490 0.023418
vn -0.179620 0.983716 0.006376
vn -0.575651 0.817659 -0.007762
vn -0.633130 0.774010 -0.007407
vn 0.525687 0.847740 0.070641
vn 0.532787 0.844368 0.056396
vn 0.173954 0.983221 0.054920
vn -0.176951 0.983461 0.038629
vn -0.568394 0.822475 0.021512
vn -0.625881 0.779905 -0.004687
vn 0.484165 0.868970 0.102348
vn 0.504714 0.859683 0.078797
vn 0.171005 0.979689 0.104723
vn -0.177470 0.980339 0.086252
vn -0.505078 0.861329 0.054837
vn -0.595621 0.803262 0.002303
vn 0.427792 0.892242 0.144562
vn 0.480514 0.869888 0.111363
vn 0.154142 0.975846 0.154806
vn -0.167191 0.976520 0.135851
vn -0.430976 0.895744 0.109102
vn -0.581613 0.813301 0.016367
vn 0.285210 0.954694 0.084945
vn 0.442237 0.886277 0.137624
vn 0.112349 0.987758 0.108221
vn -0.119533 0.987971 0.098104
vn -0.321222 0.944112 0.073948
vn -0.557367 0.824633 0.096550
vn 0.395024 0.915463 0.076703
vn 0.345711 0.933230 0.097810
vn 0.893512 0.399947 0.204156
vn 0.792908 0.597457 0.119753
vn 0.071826 0.988530 0.132853
vn 0.054307 0.980145 0.190703
vn -0.047678 0.991086 0.124402
vn 0.012174 0.983034 0.183017
vn -0.309660 0.949751 0.045648
vn -0.665406 0.740392 0.095157
vn -0.433615 0.900539 0.031762
vn -0.603598 0.797157 0.014493
vn -0.470364 -0.881350 -0.044486
vn -0.449838 -0.889265 -0.082786
vn -0.291736 -0.956202 -0.023813
vn -0.426742 -0.903912 -0.028902
vn -0.067750 -0.995818 -0.061288
vn -0.038219 -0.999238 -0.007925
vn -0.023928 -0.998137 -0.056125
vn -0.001472 -0.999997 0.001692
vn 0.262542 -0.964549 -0.026763
vn 0.239094 -0.970807 0.019158
vn 0.474070 -0.879713 0.036915
vn 0.454560 -0.890095 0.033254
vn -0.300956 -0.953597 -0.008871
vn -0.426092 -0.904488 -0.018628
vn 0.013531 -0.999798 0.014850
vn 0.013531 -0.999798 0.014843
vn 0.285991 -0.958043 0.019040
vn 0.440885 -0.897322 0.020832
vn -0.285888 -0.958257 -0.003380
vn -0.402726 -0.915186 -0.015678
vn 0.012994 -0.999567 0.026385
vn 0.012994 -0.999567 0.026384
vn 0.276492 -0.960669 0.025839
vn 0.431655 -0.901647 0.026589
vn -0.205740 -0.978203 0.028115
vn -0.248543 -0.968329 0.023757
vn 0.011025 -0.997604 0.068295
vn 0.011027 -0.997607 0.068248
vn 0.203246 -0.977883 0.049348
vn 0.275989 -0.960510 0.035356
vn -0.124608 -0.990622 0.056044
vn -0.199323 -0.979263 0.036257
vn 0.009980 -0.995861 0.090343
vn 0.009979 -0.995861 0.090343
vn 0.133838 -0.989147 0.060620
vn 0.227853 -0.972991 0.037029
vn -0.878659 0.477409 -0.006284
vn -0.821016 0.569017 0.046397
vn -0.857917 0.513715 -0.008616
vn -0.856728 0.515767 0.001057
vn -0.849997 0.526788 -0.000068
vn 0.872856 0.478352 0.096441
vn 0.890074 0.446871 0.089855
vn 0.883719 0.455944 0.105622
vn 0.921508 0.371857 0.112003
vn 0.913077 0.404268 0.053463
vn -0.695746 -0.712101 -0.094073
vn -0.177364 -0.979733 -0.093086
vn -0.075340 -0.992741 -0.093748
vn -0.035111 -0.994988 -0.093630
vn 0.013264 -0.996259 -0.085396
vn 0.574068 -0.818780 0.006720
vn 0.050414 0.981377 0.185359
vn 0.275322 0.937694 0.211963
vn 0.985274 -0.083462 0.149225
vn 0.872175 -0.488377 -0.028249
vn 0.907244 -0.419408 0.031714
vn 0.907041 -0.413799 0.077768
vn 0.884943 -0.449631 0.121279
vn 0.959813 -0.279082 -0.029536
vn 0.724169 0.433255 -0.536535
vn 0.308062 0.563396 -0.766605
vn 0.060556 0.449994 -0.890976
vn 0.009223 0.456940 -0.889450
vn -0.223467 0.605156 -0.764100
vn -0.651487 0.531447 -0.541414
vn -0.980700 -0.195398 -0.006863
vn -0.989450 -0.144827 0.003852
vn -0.993937 -0.109892 -0.003599
vn -0.994075 -0.097425 -0.048201
vn -0.992328 -0.112567 -0.051130
vn -0.956524 0.290701 0.023547
vn -0.116697 0.978363 0.170844
vn 0.026631 0.983253 0.180292
s 1
g pCube21
usemtl initialShadingGroup
f 93/124/1 94/125/2 8/8/3 7/7/4
f 94/125/2 95/126/5 9/9/6 8/8/3
f 95/126/5 96/127/7 10/10/8 9/9/6
f 96/127/7 97/128/9 11/11/10 10/10/8
f 97/128/9 98/129/11 12/12/12 11/11/10
f 7/7/4 8/8/3 14/14/13 13/13/14
f 8/8/3 9/9/6 15/15/15 14/14/13
f 9/9/6 10/10/8 16/16/16 15/15/15
f 10/10/8 11/11/10 17/17/17 16/16/16
f 11/11/10 12/12/12 18/18/18 17/17/17
f 13/13/14 14/14/13 20/20/19 19/19/20
f 14/14/13 15/15/15 21/21/21 20/20/19
f 15/15/15 16/16/16 22/22/22 21/21/21
f 16/16/16 17/17/17 23/23/23 22/22/22
f 17/17/17 18/18/18 24/24/24 23/23/23
f 19/19/20 20/20/19 26/26/25 25/25/26
f 20/20/19 21/21/21 27/27/27 26/26/25
f 21/21/21 22/22/22 28/28/28 27/27/27
f 22/22/22 23/23/23 29/29/29 28/28/28
f 23/23/23 24/24/24 30/30/30 29/29/29
f 25/25/26 26/26/25 32/32/31 31/31/32
f 26/26/25 27/27/27 33/33/33 32/32/31
f 27/27/27 28/28/28 34/34/34 33/33/33
f 28/28/28 29/29/29 35/35/35 34/34/34
f 29/29/29 30/30/30 36/36/36 35/35/35
f 31/31/32 32/32/31 75/101/37 76/103/38
f 32/32/31 33/33/33 74/100/39 75/101/37
f 33/33/33 34/34/34 73/99/40 74/100/39
f 34/34/34 35/35/35 84/114/41 73/99/40
f 35/35/35 36/36/36 83/112/42 84/114/41
f 37/37/43 38/38/44 86/116/45 87/118/46
f 38/38/44 39/39/47 85/115/48 86/116/45
f 39/39/47 40/40/49 106/138/50 85/115/48
f 40/40/49 41/41/51 105/137/52 106/138/50
f 41/41/51 42/42/53 104/135/54 105/137/52
s 2
f 77/105/55 78/106/56 50/50/57 49/49/58
f 78/106/56 79/107/59 51/51/60 50/50/57
f 79/107/59 80/108/61 52/52/62 51/51/60
f 80/108/61 81/109/63 53/53/64 52/52/62
f 81/109/63 82/110/65 54/54/66 53/53/64
f 49/49/58 50/50/57 56/56/67 55/55/68
f 50/50/57 51/51/60 57/57/69 56/56/67
f 51/51/60 52/52/62 58/58/70 57/57/69
f 52/52/62 53/53/64 59/59/71 58/58/70
f 53/53/64 54/54/66 60/60/72 59/59/71
f 55/55/68 56/56/67 62/62/73 61/61/74
f 56/56/67 57/57/69 63/63/75 62/62/73
f 57/57/69 58/58/70 64/64/76 63/63/75
f 58/58/70 59/59/71 65/65/77 64/64/76
f 59/59/71 60/60/72 66/66/78 65/65/77
f 61/61/74 62/62/73 68/68/79 67/67/80
f 62/62/73 63/63/75 69/69/81 68/68/79
f 63/63/75 64/64/76 70/70/82 69/69/81
f 64/64/76 65/65/77 71/71/83 70/70/82
f 65/65/77 66/66/78 72/72/84 71/71/83
f 67/67/80 68/68/79 2/74/85 1/73/86
f 68/68/79 69/69/81 3/75/87 2/74/85
f 69/69/81 70/70/82 4/76/88 3/75/87
f 70/70/82 71/71/83 5/77/89 4/76/88
f 71/71/83 72/72/84 6/78/90 5/77/89
s 1
f 102/133/91 103/134/92 83/113/42 36/85/36
f 101/132/93 102/133/91 36/85/36 30/86/30
f 100/131/94 101/132/93 30/86/30 24/87/24
f 99/130/95 100/131/94 24/87/24 18/88/18
f 98/129/11 99/130/95 18/88/18 12/12/12
f 88/119/96 89/120/97 31/95/32 76/102/38
f 89/120/97 90/121/98 25/96/26 31/95/32
f 90/121/98 91/122/99 19/97/20 25/96/26
f 91/122/99 92/123/100 13/98/14 19/97/20
f 92/123/100 93/124/1 7/7/4 13/98/14
f 74/100/39 73/99/40 40/40/49 39/39/47
f 75/101/37 74/100/39 39/39/47 38/38/44
f 76/103/38 75/101/37 38/38/44 37/37/43
f 87/117/46 88/119/96 76/102/38 37/94/43
s 2
f 43/43/101 44/44/102 78/106/56 77/105/55
f 44/44/102 45/45/103 79/107/59 78/106/56
f 45/45/103 46/46/104 80/108/61 79/107/59
f 46/46/104 47/47/105 81/109/63 80/108/61
f 47/47/105 48/48/106 82/110/65 81/109/63
s 1
f 83/113/42 103/134/92 104/136/54 42/84/53
f 84/114/41 83/112/42 42/42/53 41/41/51
f 73/99/40 84/114/41 41/41/51 40/40/49
f 86/116/45 85/115/48 45/45/107 44/44/108
f 87/118/46 86/116/45 44/44/108 43/43/109
f 43/89/109 77/104/110 88/119/96 87/117/46
f 77/104/110 49/90/111 89/120/97 88/119/96
f 49/90/111 55/91/112 90/121/98 89/120/97
f 55/91/112 61/92/113 91/122/99 90/121/98
f 61/92/113 67/93/114 92/123/100 91/122/99
f 67/93/114 1/1/115 93/124/1 92/123/100
f 1/1/115 2/2/116 94/125/2 93/124/1
f 2/2/116 3/3/117 95/126/5 94/125/2
f 3/3/117 4/4/118 96/127/7 95/126/5
f 4/4/118 5/5/119 97/128/9 96/127/7
f 5/5/119 6/6/120 98/129/11 97/128/9
f 6/6/120 72/83/121 99/130/95 98/129/11
f 72/83/121 66/82/122 100/131/94 99/130/95
f 66/82/122 60/81/123 101/132/93 100/131/94
f 60/81/123 54/80/124 102/133/91 101/132/93
f 54/80/124 82/111/125 103/134/92 102/133/91
f 104/136/54 103/134/92 82/111/125 48/79/126
f 105/137/52 104/135/54 48/48/126 47/47/127
f 106/138/50 105/137/52 47/47/127 46/46/128
f 85/115/48 106/138/50 46/46/128 45/45/107
